<?xml version="1.0" encoding="UTF-8"?>
<svg id="Layer_1" xmlns="http://www.w3.org/2000/svg" version="1.1" viewBox="0 0 739.33 739.33">
  <!-- Generator: Adobe Illustrator 29.1.0, SVG Export Plug-In . SVG Version: 2.1.0 Build 142)  -->
  <defs>
    <style>
      .st0 {
        fill: #a3a8ab;
      }

      .st1 {
        fill: #231f20;
      }

      .st2 {
        fill: #fff;
      }

      .st3 {
        fill: #856fa4;
      }

      .st4 {
        fill: #e2e3df;
      }

      .st5 {
        fill: #502b7f;
      }
    </style>
  </defs>
  <path class="st4" d="M730.88,608.47c4.5-7.96,4.54-15.42,4.59-24.05l-.11-25.49c0-.27,0-.54,0-.81l.12.1-.91-107.96-7.42-3.01c-3.66-1.49-7.4-2.98-11.11-4.43-12.42-4.85-25.3-9.56-38.39-14-1.75-4.07-3.74-8.06-5.94-11.92-10.98-19.28-27.71-36.15-51.14-51.57-15.32-10.08-29.02-18.94-40.72-26.32-8.72-5.5-14.07-10.13-14.72-10.7l-45.69-41.97c1.08-12.23,2-23.34,2.73-33.17.88-11.85,2.73-19.62,2.91-20.37l9.56-36.84-24.51,7.38c-5.5-19.51-15.52-37.87-28.97-52.85,5.28-4.24,8.96-9.19,11.28-13.52,39.5-17.72,39.5-46.01,39.5-56.91l-.03-24.9-19.48,15.54c-3.62,2.89-15.08,10.37-24.53,10.38-1.34,0-2.58-.16-3.69-.47-3.6-1.02-5.33-4.36-9.41-15.33-2.36-6.35-5.04-13.54-9.46-21.05-12.22-20.79-28.54-31.33-48.5-31.33-6.41,0-13.17,1.15-20.19,3.41-13-9.81-27.6-14.95-42.62-14.95-29.29,0-54.83,9.1-78.08,27.82-19.89,16.01-35.66,36.95-50.91,57.19-28.1,37.31-54.64,72.54-103.43,72.54-3.97,0-8.11-.23-12.3-.68l-17.47-1.88,4.61,16.96c2.58,9.48,18.5,29.6,44.86,39.34-15.12,5.33-32.17,9.8-40.27,10.96l-22.12,3.18,14.87,16.68c5.68,6.37,16.69,13.21,29.36,17.7-16.14,17.96-24.78,38.42-25.77,61.05-1.21,27.72,9.99,52.25,19.03,66.04-9.15,8.97-16.5,18.41-22.33,28.65-1.92,3.38-3.7,6.89-5.3,10.48-.21.07-.41.14-.62.2-14.17,4.74-28.39,9.89-42.28,15.3-7.82,3.05-15.69,6.24-23.41,9.49l-17.96,7.57,14.84,12.63c4.83,4.12,9.74,8.33,14.59,12.52,2.95,2.55,5.91,5.12,8.87,7.7l.84,133.9c-.34,1.52-.45,2.93-.47,4.16v.11s.02,39.94.02,39.94l16.28-6.22c2.24-.86,4.49-1.71,6.75-2.54l2.68-1c2.26-.83,4.52-1.66,6.78-2.47l2.17-.78,1.46-.52c2.28-.81,4.56-1.61,6.84-2.4l3.3-1.13c2.42-.83,4.85-1.65,7.28-2.46l1.15-.38,1.46-.48c2.29-.75,4.58-1.5,6.88-2.24l.67-.21,1.8-.57c4.39-1.39,8.81-2.76,13.12-4.06l7.41-2.23.02-.15c.84-.13,1.68-.31,2.51-.55l1.8-.51c.78-.22,1.52-.45,2.24-.69l.48-.13,11.51-3.12c1.55-.42,3.1-.83,4.64-1.24l2.76-.72c2.32-.6,4.65-1.2,6.97-1.78l1.52-.38,2.13-.53c2.32-.57,4.63-1.13,6.95-1.69l2.76-.65c2.32-.55,4.64-1.08,6.96-1.61l9.34-2.12s10.65-2.18,11.97-2.45c2.21-.45,4.42-.88,6.64-1.31l8.87-1.72c.32-.04.63-.07.95-.13l1.81-.33c.81-.15,1.61-.3,2.41-.49l9.77-1.63c3.59-.6,7.18-1.17,10.77-1.73l1.28-.2,1.73-.26c3.58-.54,7.21-1.07,10.79-1.56l6.88-.95c.26-.02.53-.04.79-.08,3.12-.41,6.24-.8,9.36-1.17l6.53-.78c.31-.02.63-.04.94-.08,3.41-.38,6.83-.74,10.25-1.08,1.8-.18,8.39-1.02,9.99-1.02.55,0,1.12-.03,1.69-.07,3.13-.27,6.26-.53,9.38-.76l8.65-.66,8.53-.49c2.38-.14,4.75-.26,7.13-.38l6.62-.33,6.19-.22c2.38-.08,4.76-.16,7.14-.22l3.45-.09c2.53-.06,5.05-.11,7.58-.15l6.82-.11c.17,0,.33.02.5.02h.15c2.17-.02,4.34-.02,6.51-.02l5.88.02h.87c2.38.02,4.76.05,7.14.09l5.12.06,7.69.23c2.37.07,4.73.15,7.1.24l2.82.11c2.37.1,4.74.2,7.11.31l1.79.08,2.01.11c2.38.12,4.76.26,7.13.4l3.44.21c2.52.16,5.04.33,7.57.51l1.09.08,1.61.12c2.36.18,4.72.36,7.08.56l2.81.24c2.36.2,4.72.42,7.08.64l2.71.25,3.28.33c2.36.24,4.72.48,7.07.74l11.14,1.21c.5.1,1,.19,1.51.25l1.8.22c.91.11,1.7.2,2.42.25l9.74,1.35c2.36.33,4.73.67,7.09,1.01l3.41.51c2.5.38,5.01.76,7.51,1.16l3.78.6,3.62.6c2.33.39,4.66.79,6.99,1.2l3.86.68c.02,3.54.03,5.98.03,6.99v.19s0,.11,0,.11c.09,9.29,1.77,56.4,26.05,91.46l15.72,22.69,18.02-20.9c25.02-29.02,26.93-68.48,27.05-76.52l1.22-1.91,2.36.68c2.28.66,4.56,1.32,6.84,2l2.69.8c2.3.69,4.6,1.39,6.9,2.1l.71.22,9.83,3.1,2.05.66c2.26.73,4.53,1.48,6.78,2.23l2.67.89c2.28.77,4.56,1.54,6.84,2.33l1.14.39,1.74.61c2.26.79,4.52,1.59,6.78,2.4l2.94,1.06c2.26.82,4.51,1.64,6.76,2.48l1.03.38,1.52.57c2.26.85,4.52,1.7,6.78,2.57l1.43.55,1.19.46c2.25.87,4.51,1.75,6.76,2.64l16.42,6.5v-52.02l-7.58-3c-.64-.25-1.28-.5-1.92-.75v-.04l-4.99-1.91c3.99-2.58,7.35-6.18,9.9-10.74ZM200.68,328.31c-.55.49-5.98,5.19-14.71,10.7-11.52,7.27-24.98,15.97-40.03,25.86,2.84-13.85,11.01-30.88,32.52-42.73,6.82-3.75,16.71-3.98,27.26-4.08-.02,1.84.01,3.68.1,5.52l-5.14,4.72Z"/>
  <path class="st4" d="M164.38,394.4c15.14-9.96,28.65-18.7,40.16-25.96,4.27-2.7,8.12-5.43,11.3-7.82.04,4.96.84,9.97,2.4,15.04-14.28,9.1-33.68,13.46-49.25,21.84-13.54,7.29-31.94,19.46-31.94,19.46,7.26-7.85,16.32-15.32,27.33-22.57Z"/>
  <path class="st1" d="M723.37,558.91c.02-7.98-1.01-17.61-8.8-28.26-1.71-2.38-4.77-6.06-12.99-15.54,2.18,1.72,4.35,3.45,6.52,5.19,5.07,4.06,10.12,8.16,15.16,12.31-.05-5.66-.1-11.32-.14-16.98-.13-15.28-.26-30.56-.39-45.84-.03-3.81-.06-7.62-.1-11.43-3.65-1.48-7.3-2.94-10.96-4.37-14.26-5.57-28.63-10.75-43.09-15.58-2.01-5.39-4.43-10.57-7.29-15.59-10.02-17.6-25.49-33.13-47.31-47.49-15.27-10.04-28.9-18.86-40.53-26.19-9.89-6.24-15.87-11.51-16.35-11.94l-12.3-11.3-18.34-16.85-5.32,26.62-2.88-.56c-7.94-1.43-16.02-2.16-24.15-2.16-3.38,0-6.74.14-10.09.39-7.5,20.22-20.48,34.65-40.82,46.42-5.97,3.46-11.53,6.54-16.68,9.31-.71,1.24-1.41,2.49-2.13,3.73-.85-.03-1.71-.07-2.56-.11,0,0,0,0-.01-.02-.66-.03-1.33-.05-1.99-.08-12.73,6.58-22.53,10.94-29.31,13.68-3.31,1.34-5.88,2.7-7.7,3.78-1.83-1.08-4.39-2.44-7.7-3.78-6.39-2.59-15.47-6.61-27.15-12.57-1.69.45-3.39,1-5.06,1.71-.18-.31-.36-.62-.54-.93-1.01-1.75-2.02-3.52-3.02-5.28-5.22-2.79-10.85-5.92-16.92-9.43-20.35-11.78-33.33-26.21-40.83-46.44-3.29-.24-6.6-.38-9.91-.38-7.99,0-15.92.7-23.72,2.08l-3.33.63-3.11-15.61c-7.83,10.86-10.71,19.79-10.71,19.79-1.87-7.29-2.54-14.26-2.25-20.9l-7.57,6.95-12.3,11.3c-.44.39-6.44,5.69-16.34,11.93-11.62,7.33-25.25,16.15-40.53,26.19-21.81,14.36-37.29,29.89-47.31,47.49-2.62,4.6-4.86,9.33-6.77,14.24-1.92.63-3.84,1.25-5.76,1.89-14,4.69-27.91,9.72-41.73,15.1-7.73,3.01-15.44,6.14-23.11,9.37,4.87,4.15,9.76,8.34,14.66,12.58,4.32,3.73,8.64,7.5,12.98,11.3.24,38.7.48,77.39.73,116.09.02,3.8.05,7.59.07,11.39,3.69-1.41,7.39-2.8,11.09-4.16,14.3-5.26,28.7-10.15,43.19-14.66,3.74-1.17,7.49-2.31,11.24-3.43,14.24-4.24,28.56-8.11,42.95-11.64,1.98-.49,3.96-.97,5.94-1.44,1.45-.34,2.89-.69,4.34-1.03,1.98-.46,3.96-.91,5.95-1.36,1.48-.34,2.96-.68,4.45-1.01,10.78-2.38,21.59-4.57,32.42-6.56,3.83-.7,7.67-1.38,11.51-2.03h0c12.86-2.19,25.75-4.09,38.66-5.72,2.33-.29,4.67-.56,7-.84,2.18-.26,4.37-.53,6.55-.77,14.98-1.66,30-2.95,45.03-3.87,3.87-.24,7.75-.45,11.62-.63-.01-2.2-.03-4.39-.04-6.59,8.51,6.08,18.29,5.85,21.72,5.8.15,0,.29,0,.44,0,17.42-.42,34.85-.33,52.26.25,7.98.27,14.99-2.06,20.33-6.82.02,2.58.03,5.16.05,7.73,3.88.22,7.75.46,11.62.73,13.08.9,26.15,2.09,39.19,3.55h0c3.86.44,7.71.9,11.57,1.38,14.95,1.88,29.85,4.13,44.71,6.75,3.83.68,7.66,1.38,11.48,2.1l4.25,1.03s.04.09.06.13c0,.38,0,.75,0,1.12,0,8.89.02,17.78.03,26.67v.15s0,.1,0,.15c0,.37.04,1.1.12,2.14.06,12.88.11,22.05.11,24.3v.1s0,.1,0,.1v.02c.08,8.59,1.61,53.08,24.24,85.74l8.2,11.84,9.41-10.91c22.87-26.52,24.48-63.09,24.58-70.15v-.07s0-.16,0-.16v-.11c-.01-2.57-.04-8.55-.07-16.79.23-2.11.29-3.62.3-4.22,0-.04,0-.08,0-.12v-.12c-.05-11.19-.1-22.38-.15-33.57l3.65.89c3.91.94,7.82,1.9,11.73,2.89,1.61.41,3.22.82,4.83,1.24,16.16,4.84,32.22,10.14,48.15,15.91,9.5,3.41,22.89,6.74,30.11-6.15,2.83-5.02,2.99-9.69,3.04-18.21v-.12c-.04-8.44-.07-16.89-.11-25.33Z"/>
  <path class="st4" d="M649.12,429.76c-8.9-15.63-22.91-29.61-42.84-42.72-15.19-9.99-28.75-18.76-40.3-26.05-11.34-7.16-18.02-13.17-18.28-13.41l-12.36-11.36-3.34,16.78s-3.86,20.57-15.91,48.84c6.8,1.02,13.6,2.12,20.38,3.29h0c.33.05.66.11.99.17.3.05.59.1.89.15,1.56.27,3.12.57,4.68.85,1.66.3,3.31.58,4.97.89.33.06.66.13,1,.19.28.05.56.1.85.15h0c26.07,4.93,51.98,11,77.64,18.22,3.75,1.06,7.5,2.14,11.24,3.25.02,1.65.03,3.3.05,4.95,3.95-1.37,8.2-1.35,12.25-.7-.61-1.18-1.23-2.35-1.89-3.5Z"/>
  <path class="st2" d="M543.42,372.75c-1.93-1.49-3.73-3.09-5.37-4.84,1.76-7.13,2.87-14.6,2.87-14.6,0,0,2.31,2.07,6.18,5.1-.54,4.73-1.77,9.52-3.67,14.35ZM601.45,394.4c-15.14-9.96-28.65-18.7-40.16-25.96-4.27-2.7-8.12-5.43-11.3-7.82-.04,4.96-.84,9.97-2.4,15.04,14.28,9.1,33.68,13.46,49.25,21.84,13.54,7.29,31.94,19.46,31.94,19.46-7.26-7.85-16.32-15.32-27.33-22.57Z"/>
  <path class="st0" d="M315.19,392.8c-17.04-9.86-29.08-20.93-37.87-34.83-2.19-3.45-4.15-7.12-5.94-10.98-11.48.03-22.97,1.68-33.98,4.93-.27.59-.54,1.17-.8,1.75,1.13,5.59,6.35,26.62,24.13,46.17.97-.13,1.93-.27,2.9-.4,13.67-1.78,27.37-3.25,41.09-4.41,4.01-.34,8.02-.65,12.03-.93.2-.01.41-.03.61-.04-.73-.42-1.44-.82-2.18-1.25ZM258.7,365.17c-2.53,0-4.58-2.05-4.58-4.58,0-2.13,1.46-3.92,3.43-4.43-.84.82-1.38,2-1.38,3.33,0,2.47,1.86,4.48,4.16,4.48.7,0,1.36-.19,1.94-.52-.84,1.05-2.13,1.72-3.57,1.72ZM266.02,379.93c-2.53,0-4.58-2.05-4.58-4.58,0-2.13,1.46-3.92,3.43-4.43-.84.82-1.38,2-1.38,3.33,0,2.48,1.86,4.48,4.16,4.48.7,0,1.36-.19,1.94-.52-.84,1.04-2.13,1.71-3.57,1.71ZM278.86,392.82c-2.53,0-4.58-2.05-4.58-4.58,0-2.13,1.46-3.92,3.43-4.43-.84.82-1.38,2-1.38,3.33,0,2.48,1.86,4.48,4.16,4.48.7,0,1.36-.19,1.94-.52-.84,1.05-2.13,1.71-3.57,1.71Z"/>
  <g>
    <g>
      <g>
        <path class="st1" d="M55.22,653.46c0-7.47,0-14.94-.01-22.41.03-1.62.25-2.39.84-3.23.59-.81,1.36-1.43,2.28-1.77,3.4-1.28,6.8-2.55,10.21-3.79.99-.36,1.74-.3,2.28.08.62.4.85,1,.86,2.61,0,7.47-.02,14.95-.03,22.42-2.29.82-4.58,1.66-6.87,2.5.01-1.92.02-3.85.03-5.77-.92.34-1.84.68-2.76,1.02,0,1.92,0,3.84,0,5.76-2.29.85-4.57,1.71-6.84,2.58ZM64.8,638.53c0-2.54,0-5.08-.01-7.61,0-.33-.05-.64-.13-.9-.19-.55-.92-.69-1.79-.03-.47.32-.79.99-.8,1.94,0,2.54,0,5.08.01,7.61.91-.34,1.81-.67,2.72-1.01Z"/>
        <path class="st2" d="M69.74,622.01c.43,0,.78.11,1.08.32.62.4.85,1,.86,2.61,0,7.47-.02,14.95-.03,22.42-2.29.82-4.58,1.66-6.87,2.5.01-1.92.02-3.85.03-5.77-.92.34-1.84.68-2.76,1.02,0,1.92,0,3.84,0,5.76-2.29.85-4.57,1.71-6.84,2.58,0-7.47,0-14.94-.01-22.41.03-1.62.25-2.39.84-3.23.59-.81,1.36-1.43,2.28-1.77,3.4-1.28,6.8-2.55,10.21-3.79.45-.16.85-.24,1.2-.24M62.08,639.54c.91-.34,1.81-.67,2.72-1.01,0-2.54,0-5.08-.01-7.61,0-.33-.05-.64-.13-.9-.1-.29-.36-.47-.7-.47-.3,0-.68.13-1.09.44-.47.32-.79.99-.8,1.94,0,2.54,0,5.08.01,7.61M69.74,620.01c-.59,0-1.23.12-1.89.36-3.42,1.25-6.87,2.52-10.24,3.8-1.25.47-2.35,1.32-3.18,2.46l-.02.02v.02c-.85,1.2-1.17,2.38-1.21,4.34v11.19s.01,11.26.01,11.26v2.9s2.71-1.04,2.71-1.04c2.27-.87,4.55-1.73,6.83-2.58l1.3-.49h0s1.41-.52,1.41-.52c2.28-.84,4.57-1.67,6.85-2.5l1.32-.48v-1.4s.03-22.42.03-22.42c0-1.52-.15-3.21-1.73-4.26-.63-.44-1.39-.67-2.2-.67h0Z"/>
      </g>
      <g>
        <path class="st1" d="M75.34,646.05v-26.24c3.88-1.38,7.76-2.73,11.66-4.05,3.38-1.15,5-.27,4.99,2.73,0,1.24,0,2.48,0,3.71-.03.33-.02.63-.05.93-.29,2.43-1.15,3.7-3.36,4.92-.21.11-.42.21-.63.29.21-.07.4-.1.58-.12,2.53-.31,3.57.69,3.58,3.32,0,1.88,0,3.77,0,5.65,0,1.31.1,1.72.7,2.54.05.09.1.18.19.26-2.46.82-4.92,1.65-7.37,2.49-.4-.45-.59-.96-.7-2.02-.02-.17,0-.32-.03-.5,0-1.81,0-3.62,0-5.43.02-.15,0-.25-.02-.39-.16-.86-.6-1.04-1.56-.71-.34.12-.69.24-1.03.36,0,3.28,0,6.56,0,9.84-2.31.8-4.62,1.61-6.93,2.43ZM83.09,627.51c1.39-.48,1.78-1.09,1.8-3.06.04-1.76-.46-2.18-1.92-1.67-.21.07-.43.15-.64.22,0,1.59,0,3.18.01,4.77.25-.09.5-.17.75-.26Z"/>
        <path class="st2" d="M89.44,615.27c1.73,0,2.56,1.06,2.55,3.21,0,1.24,0,2.48,0,3.71-.03.33-.02.63-.05.93-.29,2.43-1.15,3.7-3.36,4.92-.21.11-.42.21-.63.29.21-.07.4-.1.58-.12.29-.04.57-.05.83-.05,1.94,0,2.75,1.05,2.75,3.37,0,1.88,0,3.77,0,5.65,0,1.31.1,1.72.7,2.54.05.09.1.18.19.26-2.46.82-4.92,1.65-7.37,2.49-.4-.45-.59-.96-.7-2.02-.02-.17,0-.32-.03-.5,0-1.81,0-3.62,0-5.43.02-.15,0-.25-.02-.39-.11-.59-.35-.86-.81-.86-.2,0-.45.05-.75.16-.34.12-.69.24-1.03.36,0,3.28,0,6.56,0,9.84-2.31.8-4.62,1.61-6.93,2.43v-26.24c3.88-1.38,7.76-2.73,11.66-4.05.95-.32,1.76-.49,2.44-.49M82.34,627.77c.25-.09.5-.17.75-.26,1.39-.48,1.78-1.09,1.8-3.06.03-1.31-.24-1.87-.97-1.87-.26,0-.57.07-.95.2-.21.07-.43.15-.64.22,0,1.59,0,3.18.01,4.77M89.44,613.27c-.9,0-1.91.19-3.08.59-3.93,1.34-7.86,2.71-11.68,4.06l-1.33.47v30.49l2.67-.95c2.3-.82,4.6-1.63,6.91-2.42l1.35-.47v-1.08l.74.82,1.25-.43c2.45-.84,4.9-1.67,7.36-2.48l3.18-1.06-2.29-2.16h0s-.09-.13-.09-.13q-.31-.42-.31-1.35v-5.65c0-2.18-.64-3.5-1.51-4.28.74-1.05,1.16-2.3,1.34-3.89.03-.24.03-.45.04-.66,0-.11,0-.23.02-.35v-.08s0-.08,0-.08v-1.86s0-1.86,0-1.86c0-1.73-.45-3.07-1.35-3.99-.55-.56-1.56-1.22-3.2-1.22h0Z"/>
      </g>
      <g>
        <path class="st1" d="M95.62,639.11v-26.24c2.32-.76,4.64-1.52,6.97-2.26v26.24c-2.33.75-4.65,1.5-6.97,2.26Z"/>
        <path class="st2" d="M102.59,610.6v26.24c-2.33.75-4.65,1.5-6.97,2.26v-26.24c2.32-.76,4.64-1.52,6.97-2.26M104.59,607.86l-2.61.84c-2.33.75-4.66,1.5-6.98,2.27l-1.37.45v30.45l2.63-.87c2.31-.76,4.63-1.52,6.95-2.26l1.39-.45v-30.44h0Z"/>
      </g>
      <g>
        <path class="st1" d="M105.09,636.04c1.91-7.43,3.82-14.86,5.73-22.28-1.91.59-3.82,1.19-5.73,1.8.34-2.03.69-4.06,1.03-6.08,4.47-1.41,8.96-2.79,13.45-4.14-2,7.23-4.01,14.47-6.01,21.72,1.9-.58,3.8-1.16,5.71-1.73-.29,2.2-.59,4.4-.88,6.61-4.44,1.33-8.87,2.71-13.3,4.11Z"/>
        <path class="st2" d="M119.57,605.34c-2,7.23-4.01,14.47-6.01,21.72,1.9-.58,3.8-1.16,5.71-1.73-.29,2.2-.59,4.4-.88,6.61-4.44,1.33-8.87,2.71-13.3,4.11,1.91-7.43,3.82-14.86,5.73-22.28-1.91.59-3.82,1.19-5.73,1.8.34-2.03.69-4.06,1.03-6.08,4.47-1.41,8.96-2.79,13.45-4.14M122.47,602.38l-3.47,1.04c-4.47,1.34-9.01,2.74-13.47,4.15l-1.16.37-.2,1.21-.52,3.04-.52,3.04-.55,3.23,3.12-.99c.76-.24,1.53-.48,2.29-.72-1.61,6.26-3.23,12.53-4.84,18.8l-.9,3.5,3.44-1.09c4.43-1.41,8.9-2.79,13.27-4.1l1.24-.37.17-1.28.88-6.61.41-3.07-2.97.89c-.75.22-1.49.45-2.24.67,1.68-6.08,3.36-12.15,5.04-18.21l.97-3.49h0Z"/>
      </g>
      <g>
        <path class="st1" d="M121.68,621.25c0-2.22,0-4.45.01-6.67-.02-.4,0-.8,0-1.24.22-6.55,1.42-8.63,5.61-10.21.39-.15.82-.31,1.25-.43,1.15-.33,2.3-.66,3.46-.99.36-.1.76-.18,1.16-.26,3.43-.68,4.7.11,5.47,3.36.21.92.24,1.43.21,4.86,0,2.22,0,4.45-.01,6.67.02.36,0,.73.01,1.13-.17,3.73-.66,5.32-2.11,7.22-1.51,1.99-2.62,2.66-6.47,3.76-.6.17-1.2.34-1.8.52-4,1.15-6.57-.85-6.78-6.44-.03-.43-.05-.83-.03-1.27ZM128.99,622.03c.15.76.93.97,1.73.53.69-.41.94-1.03.95-2.5,0-3.76-.01-7.53-.02-11.29.01-1.46-.53-1.85-1.79-1.24-.63.29-.93.85-.95,2.02,0,3.76.01,7.53.02,11.29,0,.73.03.98.06,1.19Z"/>
        <path class="st2" d="M135.12,601.23c2.02,0,2.94,1.03,3.54,3.58.21.92.24,1.43.21,4.86,0,2.22,0,4.45-.01,6.67.02.36,0,.73.01,1.13-.17,3.73-.66,5.32-2.11,7.22-1.51,1.99-2.62,2.66-6.47,3.76-.6.17-1.2.34-1.8.52-.72.21-1.4.31-2.02.31-2.83,0-4.59-2.17-4.75-6.75-.03-.43-.05-.83-.03-1.27,0-2.22,0-4.45.01-6.67-.02-.4,0-.8,0-1.24.22-6.55,1.42-8.63,5.61-10.21.39-.15.82-.31,1.25-.43,1.15-.33,2.3-.66,3.46-.99.36-.1.76-.18,1.16-.26.74-.15,1.38-.22,1.93-.22M129.91,622.79c.25,0,.53-.08.8-.23.69-.41.94-1.03.95-2.5,0-3.76-.01-7.53-.02-11.29,0-1.02-.25-1.52-.84-1.52-.25,0-.57.09-.95.28-.63.29-.93.85-.95,2.02,0,3.76.01,7.53.02,11.29,0,.73.03.98.06,1.19.1.5.46.76.92.76M135.12,599.23h0c-.67,0-1.43.09-2.32.26-.46.09-.89.17-1.32.3-1.16.33-2.31.66-3.46.99-.5.14-.97.32-1.38.48-5.62,2.12-6.71,5.57-6.92,12.02v.24c-.02.36-.03.73,0,1.11v6.6c-.02.51,0,.96.03,1.41.29,7.79,4.82,8.63,6.75,8.63.81,0,1.67-.13,2.58-.39l1.05-.3.75-.22c3.94-1.13,5.58-1.93,7.51-4.47,1.74-2.27,2.32-4.22,2.51-8.34v-.09s0-.09,0-.09c0-.17,0-.33,0-.49,0-.2,0-.39,0-.58v-6.63c.04-3.5,0-4.14-.25-5.3-.34-1.42-1.22-5.14-5.49-5.14h0Z"/>
      </g>
      <g>
        <path class="st1" d="M142.37,625.07c0-7.17,0-14.34,0-21.5,0-1.57-.13-2.44-.6-3.92-.07-.2-.13-.4-.24-.59,2.42-.66,4.84-1.31,7.26-1.95.28.65.41,1.28.51,2.2.01.19.03.38.04.57,0,.15,0,.29-.01.44.08-.21.13-.43.2-.67.78-2.14,1.94-3.24,3.56-3.66.97-.25,1.93-.5,2.9-.74,2.28-.58,3.26.45,3.27,3.65,0,7.25,0,14.51,0,21.76-2.36.59-4.71,1.19-7.07,1.81v-18.19c0-.25,0-.48-.03-.72-.08-.82-.92-1.18-1.75-.71-.62.38-1.01,1.07-.99,2.23,0,6.04,0,12.08,0,18.12-2.35.62-4.7,1.25-7.05,1.88Z"/>
        <path class="st2" d="M157.09,595.08c1.51,0,2.18,1.17,2.19,3.81,0,7.25,0,14.51,0,21.76-2.36.59-4.71,1.19-7.07,1.81v-18.19c0-.25,0-.48-.03-.72-.06-.57-.48-.92-1.02-.92-.23,0-.49.07-.74.21-.62.38-1.01,1.07-.99,2.23,0,6.04,0,12.08,0,18.12-2.35.62-4.7,1.25-7.05,1.88,0-7.17,0-14.34,0-21.5,0-1.57-.13-2.44-.6-3.92-.07-.2-.13-.4-.24-.59,2.42-.66,4.84-1.31,7.26-1.95.28.65.41,1.28.51,2.2.01.19.03.38.04.57,0,.15,0,.29-.01.44.08-.21.13-.43.2-.67.78-2.14,1.94-3.24,3.56-3.66.97-.25,1.93-.5,2.9-.74.4-.1.76-.15,1.08-.15M157.09,593.08c-.49,0-1,.07-1.57.22-.97.25-1.94.5-2.91.75-.92.24-1.73.63-2.44,1.19l-.22-.5-1.66.44c-2.43.64-4.86,1.29-7.28,1.95l-2.43.66,1.19,2.21s.06.17.1.27c.4,1.23.5,1.91.5,3.29v10.7s0,10.81,0,10.81v2.62s2.52-.69,2.52-.69c2.34-.64,4.69-1.26,7.03-1.88l1.49-.39h0s1.29-.34,1.29-.34c2.35-.61,4.7-1.21,7.05-1.8l1.51-.38v-1.56s0-10.88,0-10.88v-10.88c-.01-4.8-2.29-5.81-4.19-5.81h0Z"/>
      </g>
      <g>
        <path class="st1" d="M162.97,619.73c0-7.47,0-14.94,0-22.41.03-1.61.26-2.36.86-3.13.61-.73,1.4-1.25,2.34-1.48,3.5-.85,7-1.68,10.5-2.49,1.02-.23,1.79-.08,2.35.37.63.47.88,1.11.88,2.71,0,7.47-.02,14.95-.03,22.42-2.35.53-4.71,1.08-7.06,1.63,0-1.92.02-3.84.03-5.77-.95.22-1.89.45-2.84.67,0,1.92,0,3.84,0,5.76-2.35.56-4.7,1.13-7.04,1.71ZM172.83,606.02c0-2.54,0-5.08-.01-7.61-.01-.33-.06-.64-.13-.92-.2-.57-.94-.8-1.84-.26-.49.26-.81.89-.82,1.84,0,2.54,0,5.07.01,7.61.93-.22,1.87-.44,2.8-.66Z"/>
        <path class="st2" d="M177.56,590.11c.59,0,1.08.17,1.46.48.63.47.88,1.11.88,2.71,0,7.47-.02,14.95-.03,22.42-2.35.53-4.71,1.08-7.06,1.63,0-1.92.02-3.84.03-5.77-.95.22-1.89.45-2.84.67,0,1.92,0,3.84,0,5.76-2.35.56-4.7,1.13-7.04,1.71,0-7.47,0-14.94,0-22.41.03-1.61.26-2.36.86-3.13.61-.73,1.4-1.25,2.34-1.48,3.5-.85,7-1.68,10.5-2.49.32-.07.62-.11.89-.11M170.03,606.68c.93-.22,1.87-.44,2.8-.66,0-2.54,0-5.08-.01-7.61-.01-.33-.06-.64-.13-.92-.12-.35-.44-.57-.87-.57-.28,0-.62.09-.97.31-.49.26-.81.89-.82,1.84,0,2.54,0,5.07.01,7.61M177.56,588.11c-.42,0-.88.05-1.34.16-3.45.8-6.99,1.63-10.53,2.49-1.33.32-2.51,1.07-3.41,2.15l-.02.02-.02.02c-1.03,1.31-1.26,2.63-1.29,4.33v22.45s.01,2.55.01,2.55l2.48-.61c2.34-.58,4.68-1.15,7.03-1.71l.97-.23,1.82-.43c2.34-.55,4.69-1.09,7.04-1.63l1.56-.35v-1.6s.03-22.42.03-22.42c0-1.48-.14-3.14-1.65-4.29-.74-.59-1.67-.91-2.69-.91h0Z"/>
      </g>
      <g>
        <path class="st1" d="M196.97,607.13c0-5.49-.01-10.98-.02-16.47.02-.4.04-.77.13-1.19.52-2.88,1.78-4.09,4.37-4.61,2.25-.46,4.51-.9,6.76-1.34,0,2.09,0,4.18,0,6.27-.9.18-1.81.35-2.71.53-.7.14-1.03.42-1.24,1.08-.02.15-.03.3-.04.48,0,3.71,0,7.41,0,11.12,0,.84.47,1.18,1.28,1.02.89-.18,1.78-.35,2.67-.52,0,2.09,0,4.18,0,6.27-2.25.44-4.49.88-6.73,1.33-2.6.52-3.87-.19-4.4-2.82-.06-.39-.11-.78-.09-1.15Z"/>
        <path class="st2" d="M208.22,583.52c0,2.09,0,4.18,0,6.27-.9.18-1.81.35-2.71.53-.7.14-1.03.42-1.24,1.08-.02.15-.03.3-.04.48,0,3.71,0,7.41,0,11.12,0,.71.34,1.06.92,1.06.11,0,.23-.01.35-.04.89-.18,1.78-.35,2.67-.52,0,2.09,0,4.18,0,6.27-2.25.44-4.49.88-6.73,1.33-.52.11-.99.16-1.41.16-1.67,0-2.57-.88-2.99-2.98-.06-.39-.11-.78-.09-1.15,0-5.49-.01-10.98-.02-16.47.02-.4.04-.77.13-1.19.52-2.88,1.78-4.09,4.37-4.61,2.25-.46,4.51-.9,6.76-1.34M210.22,581.09l-2.38.46c-2.26.44-4.52.89-6.78,1.34-3.45.7-5.28,2.6-5.94,6.18-.12.56-.15,1.05-.16,1.5v.04s0,.04,0,.04v8.24s.02,8.18.02,8.18c-.03.55.05,1.07.11,1.49v.05s.02.05.02.05c.61,3.04,2.28,4.58,4.95,4.58.55,0,1.14-.07,1.8-.2,2.24-.45,4.47-.89,6.71-1.33l1.62-.31v-1.65s0-6.26,0-6.26v-2.42s-2.38.46-2.38.46c-.52.1-1.04.2-1.57.31v-6.26s0-3.37,0-3.37c.74-.15,1.48-.29,2.22-.44l.15-.03,1.62-.32v-1.65s0-3.13,0-3.13v-3.13s0-2.42,0-2.42h0Z"/>
      </g>
      <g>
        <path class="st1" d="M211.21,599.49c0-2.22,0-4.45.01-6.67-.02-.4,0-.8,0-1.24.22-6.53,1.44-8.48,5.71-9.64.4-.11.83-.23,1.27-.31,1.17-.21,2.35-.43,3.52-.64.37-.07.78-.1,1.18-.14,3.49-.33,4.79.59,5.57,3.91.21.95.25,1.45.22,4.88,0,2.22,0,4.45-.01,6.67.02.36,0,.73.01,1.13-.18,3.71-.67,5.25-2.14,7-1.54,1.84-2.66,2.39-6.59,3.1-.61.11-1.22.22-1.83.33-4.07.74-6.69-1.52-6.9-7.13-.02-.43-.04-.83-.03-1.27ZM218.66,601.01c.15.78.94,1.07,1.76.7.7-.34.96-.94.97-2.4,0-3.77-.01-7.53-.02-11.29.01-1.46-.54-1.91-1.83-1.42-.64.22-.94.76-.96,1.92,0,3.76.01,7.53.02,11.29,0,.73.03.98.06,1.19Z"/>
        <path class="st2" d="M224.13,580.8c2.6,0,3.68,1.06,4.36,3.98.21.95.25,1.45.22,4.88,0,2.22,0,4.45-.01,6.67.02.36,0,.73.01,1.13-.18,3.71-.67,5.25-2.14,7-1.54,1.84-2.66,2.39-6.59,3.1-.61.11-1.22.22-1.83.33-.5.09-.98.14-1.43.14-3.24,0-5.28-2.35-5.47-7.27-.02-.43-.04-.83-.03-1.27,0-2.22,0-4.45.01-6.67-.02-.4,0-.8,0-1.24.22-6.53,1.44-8.48,5.71-9.64.4-.11.83-.23,1.27-.31,1.17-.21,2.35-.43,3.52-.64.37-.07.78-.1,1.18-.14.43-.04.83-.06,1.21-.06M219.73,601.87c.22,0,.45-.05.69-.16.7-.34.96-.94.97-2.4,0-3.77-.01-7.53-.02-11.29,0-1.08-.29-1.61-.98-1.61-.24,0-.52.06-.85.19-.64.22-.94.76-.96,1.92,0,3.76.01,7.53.02,11.29,0,.73.03.98.06,1.19.11.55.54.86,1.07.86M224.13,578.8h0c-.43,0-.88.02-1.39.07h-.06c-.42.04-.85.08-1.28.16-1.18.21-2.35.42-3.53.64-.53.1-1.03.23-1.44.34-5.8,1.57-6.97,5.1-7.19,11.5v.24c-.02.36-.03.73,0,1.12v3.28s-.01,3.34-.01,3.34c-.01.47.01.93.04,1.38.31,8.26,5.32,9.16,7.47,9.16.57,0,1.17-.06,1.79-.17l.91-.17.92-.17c4.06-.73,5.75-1.38,7.76-3.78,1.8-2.14,2.41-4.05,2.61-8.19v-.1s0-.1,0-.1c0-.17,0-.34,0-.5,0-.19,0-.38,0-.57v-3.29s.01-3.34.01-3.34c.03-3.5,0-4.15-.27-5.32-.65-2.75-1.9-5.54-6.32-5.54h0Z"/>
      </g>
      <g>
        <path class="st1" d="M232.3,605.41c0-6.92,0-13.85,0-20.77,0-1.86-.07-2.54-.31-3.96-.05-.25-.1-.49-.15-.74-.04-.22-.09-.45-.13-.67,2.83-.47,5.66-.93,8.49-1.38-.52,1.58-.78,3.19-.78,5.04,0,5.02,0,10.04,0,15.05.94,0,1.82-.14,3.07-.59.25-.07.46-.18.72-.25.2-.09.4-.18.6-.28.17-.07.33-.15.49-.22-.36,2.34-.73,4.68-1.09,7.02-3.64.56-7.28,1.15-10.91,1.75Z"/>
        <path class="st2" d="M240.2,577.89c-.52,1.58-.78,3.19-.78,5.04,0,5.02,0,10.04,0,15.05.94,0,1.82-.14,3.07-.59.25-.07.46-.18.72-.25.2-.09.4-.18.6-.28.17-.07.33-.15.49-.22-.36,2.34-.73,4.68-1.09,7.02-3.64.56-7.28,1.15-10.91,1.75,0-6.92,0-13.85,0-20.77,0-1.86-.07-2.54-.31-3.96-.05-.25-.1-.49-.15-.74-.04-.22-.09-.45-.13-.67,2.83-.47,5.66-.93,8.49-1.38M243.14,575.4l-3.25.51c-2.84.45-5.7.91-8.51,1.38l-2.04.34.41,2.03.13.66.05.25.09.47c.21,1.26.27,1.82.28,3.6v10.38s0,10.39,0,10.39v2.36l2.33-.39c3.59-.6,7.25-1.19,10.89-1.75l1.45-.22.22-1.45.08-.49,1.01-6.53.56-3.63-3.36,1.5-.18.08-.31.14-.18.08-.33.15c-.12.04-.24.09-.36.13-.06.03-.13.05-.2.07l-.06.02-.06.02c-.14.05-.27.09-.39.13v-12.71c0-1.62.21-3.02.67-4.41l1.04-3.12h0Z"/>
      </g>
      <g>
        <path class="st1" d="M246.27,603.19v-20.77c0-1.86-.07-2.54-.31-3.96-.05-.25-.1-.5-.15-.74-.04-.22-.09-.45-.14-.67,2.83-.43,5.67-.85,8.5-1.25-.53,1.57-.78,3.17-.78,5.03,0,5.02,0,10.04,0,15.05.94,0,1.83-.12,3.08-.55.25-.07.46-.17.72-.24.2-.09.4-.18.6-.27.16-.07.33-.14.49-.21-.36,2.33-.73,4.67-1.09,7-3.65.51-7.29,1.03-10.93,1.58Z"/>
        <path class="st2" d="M254.19,575.79c-.53,1.57-.78,3.17-.78,5.03,0,5.02,0,10.04,0,15.05.03,0,.07,0,.1,0,.91,0,1.77-.13,2.98-.55.25-.07.46-.17.72-.24.2-.09.4-.18.6-.27.16-.07.33-.14.49-.21-.36,2.33-.73,4.67-1.09,7-3.65.51-7.29,1.03-10.93,1.58v-20.77c0-1.86-.07-2.54-.31-3.96-.05-.25-.1-.5-.15-.74-.04-.22-.09-.45-.14-.67,2.83-.43,5.67-.85,8.5-1.25M257.11,573.36l-3.21.46c-2.8.4-5.67.82-8.52,1.25l-2.08.32.42,2.06c.05.22.09.43.13.65l.14.72c.22,1.27.27,1.84.28,3.61v23.09l2.3-.35c3.62-.55,7.29-1.08,10.91-1.58l1.47-.21.23-1.47,1.09-7,.56-3.56-3.32,1.41-.29.12-.21.09-.33.15-.18.08c-.12.04-.24.08-.36.13-.07.02-.13.05-.2.07l-.05.02-.05.02c-.15.05-.29.1-.43.14v-7.77s0-4.98,0-4.98c0-1.62.21-3.01.67-4.4l1.03-3.07h0Z"/>
      </g>
      <g>
        <path class="st1" d="M260.2,595.81c0-5.09,0-10.18,0-15.27.02-.4.04-.81.09-1.21.41-3.37,1.66-4.6,4.61-4.99,3.2-.42,6.39-.82,9.59-1.2,0,1.92,0,3.84,0,5.76-2.36.28-4.72.57-7.08.87,0,1.5,0,2.99,0,4.48,2.35-.3,4.7-.59,7.05-.87,0,1.98,0,3.96,0,5.94-2.35.28-4.7.57-7.05.87v4.15c2.35-.3,4.7-.59,7.05-.87,0,1.97,0,3.94-.01,5.9-3.16.38-6.32.77-9.48,1.18-3.06.4-4.78-1.08-4.78-4.76Z"/>
        <path class="st2" d="M274.5,573.13c0,1.92,0,3.84,0,5.76-2.36.28-4.72.57-7.08.87,0,1.5,0,2.99,0,4.48,2.35-.3,4.7-.59,7.05-.87,0,1.98,0,3.96,0,5.94-2.35.28-4.7.57-7.05.87v4.15c2.35-.3,4.7-.59,7.05-.87,0,1.97,0,3.94-.01,5.9-3.16.38-6.32.77-9.48,1.18-.32.04-.63.06-.92.06-2.48,0-3.86-1.53-3.86-4.82,0-5.09,0-10.18,0-15.27.02-.4.04-.81.09-1.21.41-3.37,1.66-4.6,4.61-4.99,3.2-.42,6.39-.82,9.59-1.2M276.5,570.88l-2.24.27c-3.19.38-6.43.79-9.61,1.2-3.93.51-5.83,2.52-6.34,6.73-.06.48-.08.93-.1,1.37v.04s0,.04,0,.04v7.63s0,7.64,0,7.64c0,4.27,2.2,6.82,5.86,6.82.38,0,.77-.03,1.18-.08,3.09-.4,6.27-.8,9.46-1.18l1.76-.21v-1.77s.01-5.91.01-5.91v-2.26s-2.24.27-2.24.27c-1.6.19-3.21.39-4.81.59v-.12c1.76-.22,3.52-.44,5.28-.65l1.76-.21v-1.77s0-2.97,0-2.97v-2.97s0-2.26,0-2.26l-2.24.27c-1.61.19-3.21.39-4.81.59v-.45c1.77-.22,3.54-.44,5.32-.65l1.76-.21v-1.78s0-5.76,0-5.76v-2.25h0Z"/>
      </g>
      <g>
        <path class="st1" d="M278.35,593.85c0-5.62,0-11.25,0-16.87,0-3.32,1.16-4.44,4.49-4.81,4.27-.47,8.55-.91,12.82-1.33,0,2.17,0,4.35,0,6.52-.72-.33-1.19-.43-2.31-.4-.27.02-.55.03-.82.04-.16.02-.32.03-.48.05-1.62.16-3.23.33-4.84.5-1.26.13-1.62.72-1.66,2.55,0,3.44.02,6.88.03,10.31-.02,1.13.32,1.42,1.28,1.32.54-.06,1.08-.12,1.63-.17,0-1.9,0-3.79,0-5.69,0-1.24-.17-1.95-.66-2.77-.06-.14-.15-.24-.24-.37,2.7-.28,5.4-.56,8.1-.82,0,3.23-.02,6.46-.03,9.7.03,3.83-1.18,5.58-3.25,5.79-3.46.35-6.92.71-10.38,1.1-2.62.29-3.68-.78-3.68-4.65Z"/>
        <path class="st2" d="M295.67,570.85c0,2.17,0,4.35,0,6.52-.63-.29-1.06-.4-1.9-.4-.12,0-.26,0-.41,0-.27.02-.55.03-.82.04-.16.02-.32.03-.48.05-1.62.16-3.23.33-4.84.5-1.26.13-1.62.72-1.66,2.55,0,3.44.02,6.88.03,10.31-.02,1,.24,1.34.96,1.34.1,0,.21,0,.32-.02.54-.06,1.08-.12,1.63-.17,0-1.9,0-3.79,0-5.69,0-1.24-.17-1.95-.66-2.77-.06-.14-.15-.24-.24-.37,2.7-.28,5.4-.56,8.1-.82,0,3.23-.02,6.46-.03,9.7.03,3.83-1.18,5.58-3.25,5.79-3.46.35-6.92.71-10.38,1.1-.27.03-.52.04-.75.04-2.08,0-2.93-1.22-2.92-4.7,0-5.62,0-11.25,0-16.87,0-3.32,1.16-4.44,4.49-4.81,4.27-.47,8.55-.91,12.82-1.33M297.66,568.65l-2.19.21c-4.22.41-8.54.85-12.85,1.33-4.38.49-6.25,2.52-6.27,6.79v16.88c0,1.8.17,4.05,1.57,5.45.83.83,1.96,1.25,3.35,1.25.31,0,.63-.02.97-.06,3.44-.38,6.92-.75,10.36-1.09,1.91-.19,5.1-1.46,5.05-7.79l.02-6.45v-3.23s.01-2.21.01-2.21h-.03s0-2.35,0-2.35v-4.36s0-2.17,0-2.17v-2.2h0ZM292.7,579.02l.78-.04c.08,0,.19,0,.29,0,.56,0,.71.06,1.06.22l1.45.67-.79.08c-2.67.26-5.34.53-7.93.8v-.62c0-.25.02-.43.03-.57,1.55-.16,3.11-.32,4.67-.48l.44-.04h0Z"/>
      </g>
      <g>
        <path class="st1" d="M299.45,591.34c0-5.09,0-10.18,0-15.27.02-.4.04-.81.09-1.21.42-3.35,1.67-4.53,4.63-4.79,3.21-.28,6.41-.54,9.62-.79,0,1.92,0,3.84,0,5.76-2.37.18-4.74.37-7.11.57,0,1.49,0,2.99,0,4.48,2.36-.2,4.71-.39,7.07-.57,0,1.98,0,3.96,0,5.94-2.36.18-4.71.37-7.07.57,0,1.38,0,2.77,0,4.15,2.36-.2,4.71-.39,7.07-.57,0,1.97,0,3.94,0,5.91-3.17.24-6.34.5-9.51.78-3.07.27-4.79-1.28-4.8-4.96Z"/>
        <path class="st2" d="M313.8,569.29c0,1.92,0,3.84,0,5.76-2.37.18-4.74.37-7.11.57,0,1.49,0,2.99,0,4.48,2.36-.2,4.71-.39,7.07-.57,0,1.98,0,3.96,0,5.94-2.36.18-4.71.37-7.07.57,0,1.38,0,2.77,0,4.15,2.36-.2,4.71-.39,7.07-.57,0,1.97,0,3.94,0,5.91-3.17.24-6.34.5-9.51.78-.22.02-.44.03-.65.03-2.66,0-4.14-1.58-4.15-4.99,0-5.09,0-10.18,0-15.27.02-.4.04-.81.09-1.21.42-3.35,1.67-4.53,4.63-4.79,3.21-.28,6.41-.54,9.62-.79M315.79,567.13l-2.15.16c-3.22.25-6.47.51-9.65.79-3.99.35-5.92,2.3-6.44,6.53-.06.48-.08.94-.1,1.38v.04s0,.04,0,.04v7.64s0,7.64,0,7.64c.01,6.31,4.3,6.99,6.15,6.99.27,0,.54-.01.82-.04,3.17-.28,6.37-.54,9.49-.77l1.85-.14v-1.85s.01-5.9.01-5.9v-2.16s-2.15.16-2.15.16c-1.64.12-3.28.25-4.92.39v-.14c1.74-.14,3.48-.28,5.22-.42l1.85-.14v-1.85s0-5.87,0-5.87v-2.23s-2.15.17-2.15.17c-1.64.13-3.28.26-4.92.39v-.47c1.75-.14,3.5-.28,5.26-.42l1.85-.14v-1.86s0-5.76,0-5.76v-2.16h0Z"/>
      </g>
      <g>
        <path class="st1" d="M331.16,594.37v-26.24c4.37-.25,8.75-.47,13.12-.66,3.01-.13,3.96.82,4.13,4.1,0,.25,0,.47.03.69,0,2.42,0,4.83,0,7.25-.02.37,0,.73-.03,1.1-.18,3.4-1.43,4.83-4.07,4.94-1.98.08-3.96.18-5.93.27,0,2.72-.01,5.44-.02,8.16-2.41.12-4.82.25-7.23.39ZM339.85,579.73c1-.05,1.38-.5,1.4-1.67,0-1.04,0-2.09,0-3.14,0-1.09-.45-1.55-1.48-1.5-.43.02-.87.04-1.3.06,0,2.1,0,4.2,0,6.3.46-.02.91-.05,1.37-.07Z"/>
        <path class="st2" d="M344.78,567.45c2.62,0,3.47,1.02,3.63,4.11,0,.25,0,.47.03.69,0,2.42,0,4.83,0,7.25-.02.37,0,.73-.03,1.1-.18,3.4-1.43,4.83-4.07,4.94-1.98.08-3.96.18-5.93.27,0,2.72-.01,5.44-.02,8.16-2.41.12-4.82.25-7.23.39v-26.24c4.37-.25,8.75-.47,13.12-.66.17,0,.34-.01.5-.01M338.48,579.8c.46-.02.91-.05,1.37-.07,1-.05,1.38-.5,1.4-1.67,0-1.04,0-2.09,0-3.14,0-1.04-.41-1.5-1.34-1.5-.05,0-.1,0-.15,0-.43.02-.87.04-1.3.06,0,2.1,0,4.2,0,6.3M344.78,565.45c-.19,0-.38,0-.58.01-4.37.19-8.79.41-13.15.66l-1.89.11v30.25l2.12-.12c2.4-.14,4.81-.27,7.21-.39l1.9-.09v-1.9c0-2.09.01-4.17.02-6.26,1.34-.06,2.68-.12,4.02-.18,3.73-.16,5.74-2.46,5.98-6.83.01-.2.02-.42.02-.64,0-.15,0-.3.01-.44v-.06s0-.06,0-.06v-3.63s0-3.63,0-3.63v-.14l-.02-.14s0-.2,0-.32v-.19c-.15-2.79-.92-6-5.63-6h0Z"/>
      </g>
      <g>
        <path class="st1" d="M351.37,593.43v-26.24c4.06-.14,8.11-.26,12.17-.35,3.53-.08,5.21,1.32,5.19,4.31,0,1.24,0,2.48.01,3.72-.03.33-.02.62-.05.91-.3,2.34-1.2,3.33-3.5,3.86-.22.04-.43.08-.66.09.22,0,.41.03.6.06,2.64.49,3.72,1.83,3.73,4.45,0,1.88,0,3.76,0,5.65,0,1.31.1,1.75.73,2.76.05.11.11.22.2.32-2.56.04-5.12.09-7.68.15-.42-.57-.61-1.15-.73-2.24-.03-.18,0-.33-.04-.51,0-1.81,0-3.62,0-5.43.02-.15,0-.25-.02-.4-.17-.91-.62-1.22-1.62-1.2-.36,0-.72.02-1.08.03,0,3.28,0,6.56,0,9.84-2.41.07-4.82.14-7.24.23ZM359.46,577.36c1.45-.04,1.86-.52,1.88-2.49.05-1.75-.48-2.32-2-2.28-.22,0-.44.01-.67.02,0,1.59,0,3.18.01,4.77.26,0,.52-.01.78-.02Z"/>
        <path class="st2" d="M363.81,566.83c3.34,0,4.94,1.4,4.92,4.31,0,1.24,0,2.48.01,3.72-.03.33-.02.62-.05.91-.3,2.34-1.2,3.33-3.5,3.86-.22.04-.43.08-.66.09.02,0,.03,0,.05,0,.2,0,.38.03.56.06,2.64.49,3.72,1.83,3.73,4.45,0,1.88,0,3.76,0,5.65,0,1.31.1,1.75.73,2.76.05.11.11.22.2.32-2.56.04-5.12.09-7.68.15-.42-.57-.61-1.15-.73-2.24-.03-.18,0-.33-.04-.51,0-1.81,0-3.62,0-5.43.02-.15,0-.25-.02-.4-.16-.87-.59-1.2-1.51-1.2-.04,0-.07,0-.11,0-.36,0-.72.02-1.08.03,0,3.28,0,6.56,0,9.84-2.41.07-4.82.14-7.24.23v-26.24c4.06-.14,8.11-.26,12.17-.35.09,0,.19,0,.28,0M358.68,577.38c.26,0,.52-.01.78-.02,1.45-.04,1.86-.52,1.88-2.49.04-1.69-.45-2.28-1.86-2.28-.05,0-.1,0-.15,0-.22,0-.44.01-.67.02,0,1.59,0,3.18.01,4.77M363.81,564.83c-.1,0-.21,0-.32,0-4,.09-8.1.21-12.19.35l-1.93.07v30.24l2.07-.07c2.41-.08,4.81-.16,7.22-.23l1.94-.05v-.68s.49.67.49.67l1.05-.03c2.55-.06,5.11-.11,7.66-.15l4.25-.07-2.68-3.14-.02-.04-.08-.13c-.39-.64-.43-.69-.43-1.7v-3.76s0-1.88,0-1.88c0-1.96-.54-3.5-1.6-4.59.77-.89,1.22-2.08,1.42-3.61.03-.24.04-.45.04-.66,0-.11,0-.22.02-.34v-.08s0-.08,0-.08v-3.01s-.01-.71-.01-.71c.01-1.89-.53-3.41-1.62-4.5-1.19-1.2-2.97-1.8-5.29-1.8h0Z"/>
      </g>
      <g>
        <path class="st1" d="M372.52,587.53c0-5.09,0-10.18,0-15.27.02-.4.04-.8.09-1.2.42-3.32,1.67-4.4,4.64-4.42,3.21-.02,6.43-.03,9.65-.02,0,1.92,0,3.84,0,5.76-2.38,0-4.75,0-7.13,0,0,1.5,0,2.99.01,4.48,2.36-.01,4.72-.01,7.09,0,0,1.98,0,3.96,0,5.94-2.36,0-4.72,0-7.09,0v4.15c2.36-.01,4.72-.01,7.09,0,0,1.97,0,3.94,0,5.9-3.18-.01-6.36,0-9.54.02-3.08.02-4.81-1.67-4.82-5.35Z"/>
        <path class="st2" d="M384.07,566.61c.95,0,1.89,0,2.84,0,0,1.92,0,3.84,0,5.76-.97,0-1.94,0-2.91,0-1.41,0-2.81,0-4.22,0,0,1.5,0,2.99.01,4.48,1.38,0,2.76,0,4.14,0,.98,0,1.96,0,2.95,0,0,1.98,0,3.96,0,5.94-.98,0-1.96,0-2.95,0-1.38,0-2.76,0-4.14,0v4.15c1.4,0,2.8,0,4.19,0,.96,0,1.93,0,2.89,0,0,1.97,0,3.94,0,5.9-.98,0-1.96,0-2.94,0-2.2,0-4.4,0-6.6.02h-.06c-3.04,0-4.75-1.69-4.75-5.35,0-5.09,0-10.18,0-15.27.02-.4.04-.8.09-1.2.42-3.32,1.67-4.4,4.64-4.42,2.27-.02,4.54-.02,6.81-.02M384.07,564.61c-2.27,0-4.55,0-6.82.02-4.04.03-6.08,1.93-6.61,6.17-.07.47-.09.95-.1,1.37v.04s0,.04,0,.04c0,5.09,0,10.18,0,15.27,0,4.67,2.47,7.35,6.75,7.35h.08c2.19-.02,4.39-.02,6.58-.02.98,0,1.95,0,2.93,0h2s0-2,0-2v-2.95s0-2.95,0-2.95v-2s-1.99,0-1.99,0c-.97,0-1.93,0-2.9,0-.73,0-1.46,0-2.19,0v-.15c.71,0,1.43,0,2.14,0,.98,0,1.96,0,2.94,0h2s0-2,0-2v-2.97s0-2.97,0-2.97v-2s-1.99,0-1.99,0c-.98,0-1.97,0-2.95,0-.71,0-1.43,0-2.14,0v-.48c.74,0,1.47,0,2.21,0,.97,0,1.94,0,2.9,0h2.01s0-2,0-2v-2.88s0-2.88,0-2.88v-1.99s-1.99,0-1.99,0c-.95,0-1.9,0-2.84,0h0Z"/>
      </g>
      <g>
        <path class="st1" d="M390.77,592.87v-26.24c4.38.03,8.76.1,13.13.19,3.01.07,3.96,1.08,4.13,4.36,0,.25,0,.47.02.69,0,2.42,0,4.83,0,7.25-.02.36,0,.73-.03,1.09-.19,3.38-1.43,4.74-4.07,4.68-1.98-.04-3.96-.08-5.94-.11,0,2.72-.01,5.44-.02,8.16-2.41-.04-4.82-.06-7.23-.08ZM399.47,578.8c1,.02,1.39-.41,1.41-1.58,0-1.05,0-2.09,0-3.14,0-1.09-.45-1.57-1.49-1.59-.43,0-.87-.01-1.3-.02,0,2.1,0,4.2.01,6.3.46,0,.92.01,1.37.02Z"/>
        <path class="st2" d="M390.77,566.63c4.38.03,8.76.1,13.13.19,3.01.07,3.96,1.08,4.13,4.36,0,.25,0,.47.02.69,0,2.42,0,4.83,0,7.25-.02.36,0,.73-.03,1.09-.18,3.31-1.38,4.68-3.91,4.68-.05,0-.11,0-.16,0-1.98-.04-3.96-.08-5.94-.11,0,2.72-.01,5.44-.02,8.16-2.41-.04-4.82-.06-7.23-.08v-26.24M399.53,578.8c.96,0,1.33-.43,1.35-1.58,0-1.05,0-2.09,0-3.14,0-1.09-.45-1.57-1.49-1.59-.43,0-.87-.01-1.3-.02,0,2.1,0,4.2.01,6.3.46,0,.92.01,1.37.02h.06M388.77,564.62v30.24h1.99c2.41.03,4.81.06,7.22.1l2.03.03v-2.03s0-.12,0-.12l.02-6.01c1.3.02,2.6.05,3.9.08h.21c2.53,0,5.61-1.14,5.9-6.57.01-.21.02-.42.02-.63,0-.15,0-.3.01-.45v-.06s0-.06,0-.06v-4.84s0-2.41,0-2.41v-.14l-.02-.14s0-.19,0-.31v-.1s0-.06,0-.06v-.06c-.23-4.3-2.05-6.17-6.09-6.26-4.39-.09-8.82-.16-13.16-.19h-2.01Z"/>
      </g>
      <g>
        <path class="st1" d="M410.99,593.24c0-7.47,0-14.94-.01-22.41.03-1.6.27-2.29.88-2.89.62-.56,1.43-.87,2.4-.84,3.57.12,7.14.26,10.72.41,1.04.05,1.83.41,2.39,1.02.65.65.89,1.35.9,2.96,0,7.47-.02,14.94-.03,22.41-2.4-.11-4.79-.22-7.19-.32.01-1.92.02-3.84.03-5.76-.96-.04-1.93-.08-2.89-.11,0,1.92,0,3.84,0,5.76-2.4-.09-4.8-.17-7.19-.24ZM421.05,582.26c0-2.54,0-5.08,0-7.62-.01-.33-.06-.66-.13-.95-.2-.63-.96-1.06-1.88-.77-.5.13-.83.66-.84,1.61,0,2.54,0,5.08.01,7.62.95.04,1.9.07,2.85.11Z"/>
        <path class="st2" d="M414.12,567.1s.09,0,.13,0c3.57.12,7.14.26,10.72.41,1.04.05,1.83.41,2.39,1.02.65.65.89,1.35.9,2.96,0,7.47-.02,14.94-.03,22.41-2.4-.11-4.79-.22-7.19-.32.01-1.92.02-3.84.03-5.76-.96-.04-1.93-.08-2.89-.11,0,1.92,0,3.84,0,5.76-2.4-.09-4.8-.17-7.19-.24,0-7.47,0-14.94-.01-22.41.03-1.6.27-2.29.88-2.89.6-.54,1.36-.84,2.26-.84M421.05,582.26c0-2.54,0-5.08,0-7.62-.01-.33-.06-.66-.13-.95-.16-.49-.66-.86-1.3-.86-.18,0-.38.03-.58.09-.5.13-.83.66-.84,1.61,0,2.54,0,5.08.01,7.62.95.04,1.9.07,2.85.11M414.12,565.1h0c-1.38,0-2.62.47-3.6,1.35l-.03.03-.03.03c-1.18,1.16-1.44,2.5-1.48,4.28v22.45s.01,1.94.01,1.94l1.94.06c2.39.07,4.79.15,7.18.24l1.49.05,1.36.05c2.39.1,4.79.2,7.18.32l2.09.1v-2.1s0-.22,0-.22l.03-22.19c0-1.73-.26-3.12-1.46-4.35-.94-1-2.23-1.56-3.74-1.63-3.62-.16-7.23-.3-10.74-.42-.07,0-.13,0-.2,0h0Z"/>
      </g>
      <g>
        <path class="st1" d="M432.09,594.1v-26.24c4.05.21,8.1.45,12.15.71,3.52.23,5.21,1.78,5.18,4.76,0,1.24,0,2.48.01,3.72-.03.33-.02.62-.05.91-.3,2.31-1.19,3.23-3.5,3.55-.22.02-.43.04-.66.03.22.01.41.06.6.11,2.64.72,3.71,2.15,3.72,4.78,0,1.88,0,3.77,0,5.65,0,1.31.1,1.76.73,2.82.05.11.11.23.19.34-2.55-.18-5.11-.36-7.67-.52-.42-.61-.61-1.21-.73-2.31-.03-.18,0-.33-.03-.51,0-1.81,0-3.62,0-5.43.02-.14,0-.25-.02-.4-.17-.92-.62-1.28-1.62-1.34-.36-.02-.72-.04-1.08-.07,0,3.28,0,6.56,0,9.84-2.41-.14-4.82-.28-7.23-.41ZM440.17,578.74c1.44.09,1.86-.36,1.87-2.32.05-1.75-.48-2.37-2-2.46-.22-.01-.45-.03-.67-.04,0,1.59,0,3.18.01,4.78.26.02.52.03.78.05Z"/>
        <path class="st2" d="M432.09,567.86c4.05.21,8.1.45,12.15.71,3.52.23,5.21,1.78,5.18,4.76,0,1.24,0,2.48.01,3.72-.03.33-.02.62-.05.91-.3,2.31-1.19,3.23-3.5,3.55-.17.02-.34.03-.52.03-.05,0-.09,0-.14,0,.22.01.41.06.6.11,2.64.72,3.71,2.15,3.72,4.78,0,1.88,0,3.77,0,5.65,0,1.31.1,1.76.73,2.82.05.11.11.23.19.34-2.55-.18-5.11-.36-7.67-.52-.42-.61-.61-1.21-.73-2.31-.03-.18,0-.33-.03-.51,0-1.81,0-3.62,0-5.43.02-.14,0-.25-.02-.4-.17-.92-.62-1.28-1.62-1.34-.36-.02-.72-.04-1.08-.07,0,3.28,0,6.56,0,9.84-2.41-.14-4.82-.28-7.23-.41v-26.24M440.49,578.75c1.19,0,1.54-.52,1.56-2.33.05-1.75-.48-2.37-2-2.46-.22-.01-.45-.03-.67-.04,0,1.59,0,3.18.01,4.78.26.02.52.03.78.05.11,0,.22.01.32.01M430.09,565.76v30.25l1.9.1c2.4.13,4.81.26,7.21.41l2.12.13v-.54l.39.57.97.06c2.55.16,5.1.34,7.65.52l4.48.32-2.71-3.48-.03-.06-.07-.13c-.42-.72-.45-.79-.45-1.81v-2.82s0-2.82,0-2.82c0-1.98-.53-3.54-1.6-4.7.76-.85,1.22-2.01,1.42-3.52.03-.23.04-.44.05-.64,0-.11,0-.22.02-.34v-.09s0-.09,0-.09v-3.72c0-2.33-.89-6.35-7.06-6.75-4.04-.26-8.14-.5-12.18-.72l-2.1-.11h0Z"/>
      </g>
      <g>
        <path class="st1" d="M453.21,595.45c0-7.47,0-14.94-.01-22.41.03-1.6.27-2.28.88-2.85.62-.54,1.43-.8,2.39-.73,3.57.28,7.13.58,10.7.91,1.04.09,1.82.49,2.38,1.13.65.68.89,1.39.9,3,0,7.47-.02,14.94-.03,22.41-2.39-.22-4.78-.44-7.17-.65,0-1.92.02-3.84.03-5.76-.96-.08-1.92-.16-2.89-.24,0,1.92,0,3.84,0,5.76-2.39-.2-4.79-.39-7.18-.57ZM463.25,584.93c0-2.54,0-5.08-.01-7.62,0-.33-.06-.66-.13-.96-.2-.64-.96-1.11-1.88-.85-.5.1-.83.62-.84,1.57,0,2.54,0,5.08.01,7.62.95.08,1.9.16,2.85.24Z"/>
        <path class="st2" d="M456.14,569.45c.1,0,.21,0,.32.01,3.57.28,7.13.58,10.7.91,1.04.09,1.82.49,2.38,1.13.65.68.89,1.39.9,3,0,7.47-.02,14.94-.03,22.41-2.39-.22-4.78-.44-7.17-.65,0-1.92.02-3.84.03-5.76-.96-.08-1.92-.16-2.89-.24,0,1.92,0,3.84,0,5.76-2.39-.2-4.79-.39-7.18-.57,0-7.47,0-14.94-.01-22.41.03-1.6.27-2.28.88-2.85.55-.47,1.25-.74,2.07-.74M463.25,584.93c0-2.54,0-5.08-.01-7.62,0-.33-.06-.66-.13-.96-.16-.52-.69-.92-1.38-.92-.16,0-.33.02-.5.07-.5.1-.83.62-.84,1.57,0,2.54,0,5.08.01,7.62.95.08,1.9.16,2.85.24M456.14,567.45h0c-1.27,0-2.44.42-3.37,1.22l-.03.03-.03.03c-1.22,1.14-1.48,2.48-1.51,4.27v22.45s.01,1.85.01,1.85l1.85.14c2.39.18,4.78.37,7.16.57l1.47.12,1.38.12c2.39.21,4.77.42,7.16.65l2.18.2v-2.19s.03-22.41.03-22.41c0-1.76-.25-3.1-1.42-4.35-.92-1.02-2.19-1.63-3.68-1.77-3.56-.32-7.16-.63-10.72-.91-.16-.01-.32-.02-.47-.02h0Z"/>
      </g>
      <g>
        <path class="st1" d="M472.94,576.66c0-1.92,0-3.84,0-5.76,4.79.46,9.59.97,14.37,1.51,0,1.92,0,3.84,0,5.76-1.22-.14-2.44-.27-3.65-.4,0,6.83,0,13.65,0,20.48-2.39-.26-4.78-.51-7.17-.75,0-6.83,0-13.66,0-20.48-1.18-.12-2.37-.24-3.55-.35Z"/>
        <path class="st2" d="M472.93,570.9c4.79.46,9.59.97,14.37,1.51,0,1.92,0,3.84,0,5.76-1.22-.14-2.44-.27-3.65-.4,0,6.83,0,13.65,0,20.48-2.39-.26-4.78-.51-7.17-.75,0-6.83,0-13.66,0-20.48-1.18-.12-2.37-.24-3.55-.35,0-1.92,0-3.84,0-5.76M470.93,568.7v2.21s0,2.86,0,2.86v2.89s0,1.81,0,1.81l1.8.18c.58.06,1.16.11,1.74.17v8.43s0,10.24,0,10.24v1.81s1.8.18,1.8.18c2.39.24,4.77.49,7.15.75l2.21.24v-2.23s0-10.19,0-10.19v-8.06c.48.05.96.11,1.43.16l2.22.25v-2.24s0-5.76,0-5.76v-1.79s-1.78-.2-1.78-.2c-4.81-.54-9.66-1.05-14.41-1.51l-2.19-.21h0Z"/>
      </g>
      <g>
        <path class="st1" d="M489.47,589.2c0-2.22,0-4.45.01-6.67-.02-.4,0-.8,0-1.24.22-6.46,1.46-8.04,5.76-7.88.4.01.84.03,1.28.08,1.18.15,2.36.29,3.54.44.37.05.78.14,1.19.22,3.51.74,4.81,2.05,5.6,5.62.21,1.01.25,1.53.22,4.95,0,2.22,0,4.45-.01,6.67.02.37,0,.73.01,1.13-.18,3.66-.67,5.05-2.15,6.35-1.55,1.36-2.68,1.58-6.62,1.08-.62-.08-1.23-.15-1.84-.23-4.09-.5-6.74-3.57-6.95-9.25-.03-.44-.05-.84-.04-1.28ZM496.97,593.01c.15.82.95,1.36,1.77,1.24.71-.13.96-.64.98-2.1,0-3.77-.01-7.53-.02-11.3.02-1.45-.54-2.07-1.83-1.98-.65.03-.95.47-.97,1.63,0,3.77.01,7.53.02,11.3,0,.73.03.99.06,1.21Z"/>
        <path class="st2" d="M494.72,573.4c.17,0,.35,0,.54,0,.4.01.84.03,1.28.08,1.18.15,2.36.29,3.54.44.37.05.78.14,1.19.22,3.51.74,4.81,2.05,5.6,5.62.21,1.01.25,1.53.22,4.95,0,2.22,0,4.45-.01,6.67.02.37,0,.73.01,1.13-.18,3.66-.67,5.05-2.15,6.35-1.06.93-1.92,1.32-3.6,1.32-.79,0-1.76-.09-3.02-.24-.62-.08-1.23-.15-1.84-.23-4.09-.5-6.74-3.57-6.95-9.25-.03-.44-.05-.84-.04-1.28,0-2.22,0-4.45.01-6.67-.02-.4,0-.8,0-1.24.21-6.18,1.35-7.89,5.22-7.89M498.52,594.27c.07,0,.15,0,.22-.02.71-.13.96-.64.98-2.1,0-3.77-.01-7.53-.02-11.3.01-1.36-.47-1.99-1.59-1.99-.08,0-.16,0-.24,0-.65.03-.95.47-.97,1.63,0,3.77.01,7.53.02,11.3,0,.73.03.99.06,1.21.14.75.81,1.26,1.54,1.26M494.72,571.4h0c-6.36,0-7.04,4.65-7.22,9.83v.2c-.02.37-.03.75-.01,1.16v6.59c-.03.53,0,1.02.03,1.43.24,6.39,3.41,10.46,8.7,11.11.61.08,1.23.15,1.84.23,1.43.18,2.44.26,3.27.26,2.08,0,3.42-.49,4.93-1.82,2.16-1.9,2.65-4.1,2.83-7.75v-.1s0-.1,0-.1c0-.17,0-.34,0-.5,0-.19,0-.38,0-.57v-3.29s.01-3.33.01-3.33c.03-3.43,0-4.13-.26-5.36-.95-4.33-2.89-6.26-7.14-7.16l-.07-.02c-.42-.09-.85-.18-1.28-.24-1.18-.15-2.36-.3-3.54-.44-.54-.07-1.05-.08-1.46-.1-.21,0-.41-.01-.6-.01h0Z"/>
      </g>
      <g>
        <path class="st1" d="M510.62,601.58v-26.24c4.03.56,8.05,1.14,12.08,1.76,3.49.53,5.16,2.22,5.14,5.21,0,1.24,0,2.48.01,3.72-.03.32-.02.62-.05.9-.29,2.29-1.18,3.13-3.47,3.25-.21,0-.43,0-.65-.03.22.03.41.1.6.17,2.61.95,3.69,2.47,3.69,5.1,0,1.88,0,3.76,0,5.65,0,1.31.1,1.76.72,2.88.05.12.1.24.2.36-2.54-.4-5.07-.8-7.61-1.18-.41-.64-.6-1.26-.72-2.37-.03-.18-.01-.33-.04-.51,0-1.81,0-3.62,0-5.43.02-.14,0-.25-.02-.4-.17-.94-.62-1.33-1.61-1.48-.36-.05-.71-.1-1.07-.16,0,3.28,0,6.56,0,9.84-2.39-.35-4.79-.69-7.18-1.02ZM518.65,586.91c1.44.21,1.85-.2,1.86-2.17.05-1.74-.48-2.41-1.99-2.63-.22-.03-.44-.06-.66-.1,0,1.59,0,3.18.01,4.78.26.04.52.08.77.11Z"/>
        <path class="st2" d="M510.62,575.34c4.03.56,8.05,1.14,12.08,1.76,3.49.53,5.16,2.22,5.14,5.21,0,1.24,0,2.48.01,3.72-.03.32-.02.62-.05.9-.29,2.29-1.18,3.13-3.47,3.25-.07,0-.14,0-.21,0-.15,0-.29,0-.44-.03.22.03.41.1.6.17,2.61.95,3.69,2.47,3.69,5.1,0,1.88,0,3.76,0,5.65,0,1.31.1,1.76.72,2.88.05.12.1.24.2.36-2.54-.4-5.07-.8-7.61-1.18-.41-.64-.6-1.26-.72-2.37-.03-.18-.01-.33-.04-.51,0-1.81,0-3.62,0-5.43.02-.14,0-.25-.02-.4-.17-.94-.62-1.33-1.61-1.48-.36-.05-.71-.1-1.07-.16,0,3.28,0,6.56,0,9.84-2.39-.35-4.79-.69-7.18-1.02v-26.24M519.24,586.96c.96,0,1.26-.55,1.28-2.21.05-1.74-.48-2.41-1.99-2.63-.22-.03-.44-.06-.66-.1,0,1.59,0,3.18.01,4.78.26.04.52.08.77.11.22.03.42.05.59.05M508.62,573.04v30.28l1.73.24c2.39.33,4.78.67,7.17,1.02l2.29.34v-.37l.27.41.9.13c2.56.38,5.11.78,7.6,1.18l4.83.77-2.86-3.88v-.03s-.05-.09-.05-.09l-.04-.08c-.44-.8-.47-.91-.47-1.91v-2.82s0-2.82,0-2.82c0-1.97-.53-3.56-1.6-4.79.76-.81,1.23-1.95,1.42-3.45.03-.24.04-.44.05-.66,0-.11,0-.22.02-.34v-.08s0-.08,0-.08v-1.86s-.01-1.86-.01-1.86c.02-2.79-1.15-6.31-6.84-7.18-3.98-.61-8.05-1.2-12.1-1.76l-2.27-.32h0Z"/>
      </g>
      <g>
        <path class="st1" d="M531.36,588.51c0-3.35,0-6.71,0-10.06,2.36.38,4.73.77,7.09,1.18,0,3.49,0,6.97,0,10.46,0,.33.02.66.03.99.19,1.63.6,2.51,1.42,3.3.92-.61,1.42-1.65,1.45-3.8,0-3.49,0-6.97,0-10.46,2.37.41,4.75.83,7.12,1.26,0,3.35,0,6.7-.01,10.06-.01,1.46-.34,3-1.02,4.3-.64,1.34-1.67,2.43-3.37,3.59-.2.11-.43.25-.63.37,0,2.34,0,4.69,0,7.03-2.36-.41-4.72-.82-7.08-1.21,0-2.34,0-4.69,0-7.03-.2-.18-.41-.4-.62-.58-2.62-2.62-3.93-5.06-4.31-8.11-.06-.41-.08-.85-.07-1.29Z"/>
        <path class="st2" d="M531.37,578.46c2.36.38,4.73.77,7.09,1.18,0,3.49,0,6.97,0,10.46,0,.33.02.66.03.99.19,1.63.6,2.51,1.42,3.3.92-.61,1.42-1.65,1.45-3.8,0-3.49,0-6.97,0-10.46,2.37.41,4.75.83,7.12,1.26,0,3.35,0,6.7-.01,10.06-.01,1.46-.34,3-1.02,4.3-.64,1.34-1.67,2.43-3.37,3.59-.2.11-.43.25-.63.37,0,2.34,0,4.69,0,7.03-2.36-.41-4.72-.82-7.08-1.21,0-2.34,0-4.69,0-7.03-.2-.18-.41-.4-.62-.58-2.62-2.62-3.93-5.06-4.31-8.11-.06-.41-.08-.85-.07-1.29,0-3.35,0-6.71,0-10.06M529.37,576.11v2.35s0,5.03,0,5.03v5.03c-.02.5.01,1.04.09,1.57.43,3.44,1.94,6.3,4.88,9.24l.03.03v6.17s0,1.69,0,1.69l1.67.28c2.36.39,4.71.8,7.07,1.21l2.35.41v-2.38s0-3.53,0-3.53v-2.38c1.86-1.3,3.03-2.6,3.79-4.18.77-1.5,1.21-3.33,1.23-5.17v-10.07s.01-1.67.01-1.67l-1.65-.3c-2.38-.43-4.75-.85-7.13-1.26l-1.24-.21h0s-.17-.03-.17-.03l-.93-.16h0s-.56-.09-.56-.09c-2.37-.4-4.74-.79-7.11-1.18l-2.32-.38h0Z"/>
      </g>
    </g>
    <g>
      <g>
        <path class="st1" d="M629.05,627.68c0-7.16,0-14.31,0-21.47.01-1.45-.1-2.28-.46-3.73-.07-.24-.13-.47-.2-.71-.05-.17-.09-.34-.14-.51,2.37.65,4.73,1.31,7.1,1.98.36,1.16.55,2.3.56,3.44.03.23.02.44.02.66.17-.36.34-.73.51-1.09.93-1.88,1.57-2.25,2.76-1.91,1.41.41,2.83.82,4.24,1.23.22.06.44.16.62.26,1.23.65,1.67,1.44,2.03,3.62.02.12.03.23,0,.33,0-.02.02-.04.03-.07.13-.29.27-.58.4-.86.65-1.55,1.36-1.92,2.86-1.51,1.1.32,2.2.64,3.29.96,1.93.55,2.95,2.07,2.94,5.34v21.8c-2.33-.72-4.66-1.42-6.99-2.12.03-6.17.06-12.33.09-18.5,0-.18-.01-.37,0-.55-.09-.94-.92-1.73-1.88-1.73-.45.01-.75.32-.89,1.08-.02.1-.03.28-.02.4,0,6.16-.02,12.32-.03,18.48-2.31-.68-4.62-1.36-6.93-2.02,0-6.12-.02-12.24-.03-18.35.01-1.45-.68-2.27-1.84-2.38-.63-.03-1.01.44-1.04,1.52,0,6.13,0,12.25,0,18.38-2.34-.66-4.68-1.32-7.02-1.96Z"/>
        <path class="st2" d="M628.25,601.26c2.37.65,4.73,1.31,7.1,1.98.36,1.16.55,2.3.56,3.44.03.23.02.44.02.66.17-.36.34-.73.51-1.09.73-1.48,1.28-2.02,2.06-2.02.21,0,.44.04.7.11,1.41.41,2.83.82,4.24,1.23.22.06.44.16.62.26,1.23.65,1.67,1.44,2.03,3.62.02.12.03.23,0,.33,0-.02.02-.04.03-.07.13-.29.27-.58.4-.86.49-1.17,1.02-1.67,1.88-1.67.29,0,.61.05.98.16,1.1.32,2.2.64,3.29.96,1.93.55,2.95,2.07,2.94,5.34v21.8c-2.33-.72-4.66-1.42-6.99-2.12.03-6.17.06-12.33.09-18.5,0-.18-.01-.37,0-.55-.09-.94-.91-1.73-1.88-1.73h0c-.45.01-.75.32-.89,1.08-.02.1-.03.28-.02.4,0,6.16-.02,12.32-.03,18.48-2.31-.68-4.62-1.36-6.93-2.02,0-6.12-.02-12.24-.03-18.35.01-1.45-.68-2.27-1.84-2.38-.02,0-.04,0-.06,0-.59,0-.95.48-.98,1.52,0,6.13,0,12.25,0,18.38-2.34-.66-4.68-1.32-7.02-1.96,0-7.16,0-14.31,0-21.47.01-1.45-.1-2.28-.46-3.73-.07-.24-.13-.47-.2-.71-.05-.17-.09-.34-.14-.51M625.39,598.4l.94,3.39.13.5.11.4.09.31c.33,1.29.41,1.96.4,3.19v10.75s0,10.74,0,10.74v1.52s1.47.4,1.47.4c2.34.64,4.67,1.3,7.01,1.96l1.46.42h0s1.45.42,1.45.42c2.31.66,4.61,1.34,6.92,2.02l1.76.52.96.29c2.33.7,4.65,1.4,6.97,2.12l2.59.8v-24.51c.02-3.98-1.46-6.43-4.39-7.27-1.09-.32-2.19-.64-3.29-.96-.58-.16-1.08-.24-1.54-.24-.64,0-1.18.14-1.62.36-.43-.58-1.01-1.07-1.79-1.49h-.03s-.03-.03-.03-.03c-.26-.13-.58-.28-.95-.38-1.41-.41-2.83-.83-4.24-1.23-.45-.13-.86-.19-1.25-.19-.48,0-.91.09-1.29.25l-.27-.86-1.04-.29c-2.37-.67-4.74-1.33-7.11-1.98l-3.39-.93h0Z"/>
      </g>
      <g>
        <path class="st1" d="M658.52,636.34c0-7.16,0-14.31,0-21.47.01-1.45-.1-2.29-.46-3.75-.07-.24-.13-.48-.2-.72-.05-.17-.09-.34-.13-.51,2.35.73,4.7,1.47,7.04,2.22.36,1.17.55,2.32.56,3.45.03.23.02.44.02.66.17-.36.34-.72.51-1.08.92-1.85,1.56-2.19,2.74-1.81,1.4.46,2.81.91,4.21,1.38.21.07.43.18.62.28,1.21.69,1.66,1.5,2.02,3.69.01.11.03.23,0,.33,0-.02.02-.04.03-.07.13-.28.27-.57.4-.85.65-1.53,1.35-1.88,2.84-1.41,1.09.35,2.18.71,3.27,1.07,1.92.62,2.93,2.17,2.92,5.44v21.8c-2.31-.8-4.62-1.58-6.93-2.36.03-6.17.06-12.33.09-18.5.01-.18-.01-.37,0-.55-.09-.94-.91-1.76-1.87-1.79-.45,0-.74.3-.88,1.05-.02.1-.03.28-.02.39,0,6.16-.02,12.32-.03,18.48-2.29-.76-4.58-1.52-6.88-2.26,0-6.12-.02-12.24-.03-18.35.01-1.45-.68-2.29-1.82-2.44-.62-.05-1.01.4-1.04,1.49,0,6.13,0,12.25,0,18.38-2.32-.74-4.64-1.48-6.97-2.2Z"/>
        <path class="st2" d="M657.74,609.89c2.35.73,4.7,1.47,7.04,2.22.36,1.17.55,2.32.56,3.45.03.23.02.44.02.66.17-.36.34-.72.51-1.08.7-1.42,1.24-1.95,1.99-1.95.23,0,.47.05.75.14,1.4.46,2.81.91,4.21,1.38.21.07.43.18.62.28,1.21.69,1.66,1.5,2.02,3.69.01.11.03.23,0,.33,0-.02.02-.04.03-.07.13-.28.27-.57.4-.85.47-1.12.98-1.6,1.79-1.6.3,0,.65.07,1.05.19,1.09.35,2.18.71,3.27,1.07,1.92.62,2.93,2.17,2.92,5.44v21.8c-2.31-.8-4.62-1.58-6.93-2.36.03-6.17.06-12.33.09-18.5.01-.18-.01-.37,0-.55-.09-.94-.91-1.76-1.87-1.79h0c-.44,0-.74.3-.88,1.05-.02.1-.03.28-.02.39,0,6.16-.02,12.32-.03,18.48-2.29-.76-4.58-1.52-6.88-2.26,0-6.12-.02-12.24-.03-18.35.01-1.45-.68-2.29-1.82-2.44-.03,0-.07,0-.1,0-.57,0-.91.46-.94,1.49,0,6.13,0,12.25,0,18.38-2.32-.74-4.64-1.48-6.97-2.2,0-7.16,0-14.31,0-21.47.01-1.45-.1-2.29-.46-3.75-.07-.24-.13-.48-.2-.72-.05-.17-.09-.34-.13-.51M654.88,606.91l.92,3.49.13.5.09.31.12.45c.32,1.29.4,1.96.39,3.2v21.48s0,1.47,0,1.47l1.41.45c2.32.72,4.64,1.46,6.95,2.2l1.86.6,1.03.33c2.29.74,4.58,1.5,6.86,2.26l1.95.65.75.25c2.31.78,4.61,1.56,6.92,2.36l2.65.92v-24.61c0-1.47.02-5.95-4.31-7.35-1.08-.36-2.17-.71-3.26-1.07-.63-.2-1.17-.29-1.67-.29-.57,0-1.06.12-1.48.31-.42-.59-.99-1.1-1.78-1.55l-.04-.02-.04-.02c-.27-.14-.57-.29-.9-.4-1.41-.46-2.82-.92-4.22-1.38-.49-.16-.94-.24-1.37-.24s-.84.08-1.19.21l-.28-.89-1-.32c-2.35-.75-4.7-1.49-7.06-2.22l-3.45-1.07h0Z"/>
      </g>
      <g>
        <path class="st1" d="M687.82,646.02c0-3.14,0-6.29-.01-9.43.01-1.45.86-2.25,3.1-2.4.1,0,.23-.03.37-.01-.11-.08-.23-.19-.38-.28-2.25-1.74-3.05-3.18-3.08-5.49,0-2.86,0-5.73,0-8.59,2.32.81,4.63,1.63,6.95,2.45,0,2.51,0,5.02,0,7.54-.01.18.02.41.05.64.15,1.4.58,2.35,1.37,3.29.77-.34,1.22-1.01,1.35-2.31.05-.17.05-.38.06-.6,0-2.51,0-5.02,0-7.54,2.31.84,4.62,1.68,6.92,2.54,0,2.86,0,5.73,0,8.59,0,1.78-.5,2.62-1.89,3.09-.32.1-.68.19-1.08.18-.17,0-.34-.01-.47,0,.11.08.22.15.34.27,2.25,1.77,3.09,3.14,3.09,4.63,0,3.14,0,6.29,0,9.43-2.28-.85-4.57-1.68-6.85-2.51,0-2.34,0-4.68,0-7.03-.03-.23-.03-.48-.06-.71-.2-1.57-.67-2.54-1.41-3.35-.77.27-1.23.91-1.42,2.29-.04.24-.08.45-.08.7,0,2.34,0,4.68,0,7.03-2.29-.82-4.58-1.63-6.87-2.43Z"/>
        <path class="st2" d="M687.82,619.81c2.32.81,4.63,1.63,6.95,2.45,0,2.51,0,5.02,0,7.54-.01.18.02.41.05.64.15,1.4.58,2.35,1.37,3.29.77-.34,1.22-1.01,1.35-2.31.05-.17.05-.38.06-.6,0-2.51,0-5.02,0-7.54,2.31.84,4.62,1.68,6.92,2.54,0,2.86,0,5.73,0,8.59,0,1.78-.5,2.62-1.89,3.09-.32.1-.67.18-1.07.18h-.01s-.06,0-.09,0c-.08,0-.16,0-.23,0-.05,0-.11,0-.15.01.11.08.22.15.34.27,2.25,1.77,3.09,3.14,3.09,4.63,0,3.14,0,6.29,0,9.43-2.28-.85-4.57-1.68-6.85-2.51,0-2.34,0-4.68,0-7.03-.03-.23-.03-.48-.06-.71-.2-1.57-.67-2.54-1.41-3.35-.77.27-1.23.91-1.42,2.29-.04.24-.08.45-.08.7,0,2.34,0,4.68,0,7.03-2.29-.82-4.58-1.63-6.87-2.43,0-3.14,0-6.29-.01-9.43.01-1.45.86-2.25,3.1-2.4.08,0,.18-.02.29-.02.03,0,.05,0,.08,0-.11-.08-.23-.19-.38-.28-2.25-1.74-3.05-3.18-3.08-5.49,0-2.86,0-5.73,0-8.59M685.82,616.99v2.82s0,4.29,0,4.29v4.29c.03,1.94.49,3.45,1.57,4.85-1.3.96-1.57,2.35-1.58,3.31v9.37s.01.08.01.08v1.42s1.34.47,1.34.47c2.29.8,4.58,1.61,6.86,2.42l1.65.59h0l1.32.48c2.28.83,4.56,1.66,6.84,2.5l2.7,1v-2.88s-.01-9.43-.01-9.43c0-1.61-.67-2.95-1.6-4.07,1.41-1.15,1.61-2.82,1.61-4.1v-8.6s0-1.39,0-1.39l-1.3-.48c-2.31-.86-4.62-1.7-6.94-2.54l-2.68-.97h0s-.16-.05-.16-.05c-2.32-.83-4.64-1.65-6.96-2.46l-2.66-.93h0Z"/>
      </g>
      <g>
        <path class="st1" d="M707.1,652.99c0-8.74,0-17.47,0-26.21,2.29.86,4.58,1.73,6.87,2.6v26.21c-2.29-.88-4.58-1.74-6.87-2.6Z"/>
        <path class="st2" d="M707.1,626.78c2.29.86,4.58,1.73,6.87,2.6v26.21c-2.29-.88-4.58-1.74-6.87-2.6,0-8.74,0-17.47,0-26.21M705.1,623.9v29.09s0,1.39,0,1.39l1.3.49c2.29.86,4.57,1.72,6.86,2.6l2.71,1.04v-30.49l-1.28-.49c-2.29-.88-4.59-1.75-6.89-2.61l-2.7-1.01h0Z"/>
      </g>
      <g>
        <path class="st1" d="M716.63,656.61c0-8.73,0-17.47,0-26.21,2.29.88,4.57,1.78,6.85,2.68v26.21c-2.28-.9-4.56-1.8-6.85-2.68Z"/>
        <path class="st2" d="M716.62,630.4c2.29.88,4.57,1.78,6.85,2.68v26.21c-2.28-.9-4.56-1.8-6.85-2.68,0-8.73,0-17.47,0-26.21M714.62,627.48v29.12s0,1.37,0,1.37l1.28.49c2.28.88,4.56,1.77,6.83,2.67l2.74,1.08v-30.51l-1.26-.5c-2.29-.91-4.57-1.8-6.86-2.69l-2.72-1.05h0Z"/>
      </g>
    </g>
  </g>
  <g>
    <path class="st2" d="M259.68,416.64c-3.61-3.01-8.43-4.06-14.72-3.15-.08.01-.16.02-.25.04-4.92.75-9.84,1.53-14.75,2.36-5.51.93-10.1,3.29-13.85,7.12.02-1.56.03-3.12.05-4.68-5.81,1.07-11.61,2.2-17.41,3.38,0,0,0,0,0,0-14.34,2.93-28.62,6.21-42.85,9.85,5.18,5.03,10.37,10.11,15.57,15.23.31,2.33.46,4.88.48,8.25.23,37.46.45,74.91.68,112.37,14.76-3.47,29.58-6.57,44.45-9.3-.19-30.17-.38-60.33-.57-90.5,1.04-.19,2.09-.38,3.14-.57,1.04-.1,1.52.06,1.64.16.21.18.61,1.05.61,3.04.19,28.97.39,57.93.58,86.9,14.88-2.63,29.81-4.9,44.78-6.78-.23-37.51-.45-75.03-.68-112.54-.11-10.58-2.31-17.33-6.91-21.16ZM225.95,553.08c-.18-27.81-.37-55.63-.56-83.44,0-2.57-.53-4.34-1.59-5.27-.82-.7-2.12-.98-3.85-.82-.05,0-.1,0-.16.01-.05,0-.1.02-.15.03-1.04.19-2.09.38-3.14.57-1.16.21-2.31.43-3.47.65,0,1.15.01,2.29.02,3.44.18,29.02.37,58.04.55,87.05-12.55,2.35-25.06,4.97-37.53,7.85-.22-36.31-.44-72.62-.66-108.94-.03-3.54-.18-6.21-.51-8.66-.04-.32-.08-.64-.13-.95-.21-.21-.42-.41-.63-.62-3.67-3.63-7.33-7.23-10.99-10.81,10.24-2.53,20.51-4.87,30.8-7.03,0,0,0,0,0,0,1.61-.34,3.22-.67,4.83-1,4.62-.94,9.25-1.85,13.88-2.73,0,.39,0,.78-.01,1.17-.03,2.52-.05,5.05-.08,7.57,1.93-1.98,3.87-3.96,5.8-5.93,3.1-3.16,6.9-5.1,11.62-5.9,4.91-.83,9.83-1.61,14.75-2.36.08-.01.15-.02.22-.03,5.34-.77,9.36.06,12.28,2.49,3.89,3.23,5.75,9.22,5.85,18.82.22,36.37.44,72.73.66,109.1-12.63,1.64-25.24,3.55-37.81,5.73Z"/>
    <path class="st2" d="M493.7,410.18c.12,16.55.23,33.11.35,49.66-1.93-.24-3.86-.47-5.79-.7-.12-16.55-.23-33.1-.35-49.66-5.98-.71-11.97-1.35-17.96-1.94,0,0,0,0,0,0-14.49-1.42-29.01-2.49-43.54-3.21,5.56,6.94,11.11,13.94,16.66,20.98.26,40,.52,80,.78,120.01,15.08,1.04,30.13,2.45,45.15,4.24-.12-16.98-.24-33.95-.37-50.93,1.09.13,2.18.26,3.27.39,1.08.22,1.59.54,1.72.69.24.28.65,1.29.65,3.34.11,15.73.22,31.46.34,47.19,14.95,1.88,29.85,4.12,44.71,6.75-.3-46.7-.6-93.41-.9-140.11-14.86-2.61-29.77-4.84-44.73-6.7ZM498.08,547.24c-.1-14.57-.21-29.15-.31-43.72,0-2.64-.54-4.61-1.62-5.85-.84-.98-2.18-1.67-3.97-2.04-.05,0-.1-.02-.15-.03-.05,0-.1-.01-.15-.02-1.09-.13-2.18-.26-3.27-.39-1.16-.14-2.33-.27-3.49-.41,0,1.15.02,2.3.02,3.45.11,15.83.23,31.65.34,47.48-12.7-1.46-25.42-2.66-38.15-3.58-.25-38.85-.51-77.71-.76-116.56,0-.41,0-.82,0-1.22-.26-.33-.53-.67-.79-1.01-3.99-5.08-7.99-10.13-11.98-15.16,9.95.57,19.89,1.31,29.81,2.21,0,0,0,0,0,0,2.12.19,4.24.39,6.36.6,4.83.47,9.65.98,14.47,1.53.11,15.4.22,30.81.33,46.21l.02,3.45c1.17.13,2.33.27,3.49.41,1.93.23,3.86.46,5.79.7,1.16.15,2.33.29,3.49.44,0-1.15-.02-2.3-.02-3.45-.11-15.4-.21-30.81-.32-46.21,12.62,1.62,25.21,3.51,37.76,5.66.29,44.4.57,88.81.86,133.21-12.55-2.17-25.14-4.06-37.76-5.7Z"/>
    <path class="st2" d="M712.38,554.45c.02-6.92-.89-12.48-5.39-18.51-1.25-1.76-5.04-6.22-13.44-15.8-4.68-5.34-9.53-10.8-12.31-14.04q-1.64-1.92-1.76-3.97c0-.16-.01-.32-.02-.49-.14-2.46-.14-4.87-.14-6.8,0-.44,0-.88,0-1.32,0-.62.03-1.01.07-1.24.15.04.36.1.64.2,5.14,1.79,10.26,3.63,15.37,5.51,5.59,4.37,11.17,8.8,16.73,13.29-.09-13.54-.18-27.08-.26-40.61,0,0-.02.02-.03.03-.03-1.75-.06-3.5-.1-5.25-17.5-6.84-35.16-13.12-52.96-18.83-10.87-3.48-16.85-1.98-20.57,4.87-1.74,3.19-1.99,5.7-2.03,14.04.04,8.46.08,16.91.11,25.37-.02,6.93.91,12.37,5.49,18.04,1.28,1.68,5.17,5.8,13.69,15,4.72,5.1,9.59,10.43,12.38,13.63,1.19,1.36,1.49,1.88,1.58,2.18.04,3.86.07,7.71.11,11.57-.12-.03-.28-.08-.47-.15-5.18-1.73-10.37-3.42-15.57-5.05-5.63-4.07-11.28-8.08-16.94-12.03.09,15.31.19,30.63.28,45.95,1.68.43,3.37.86,5.05,1.29,16.24,4.86,32.36,10.18,48.37,15.97,10.76,3.91,16.6,2.95,20.25-3.6,1.71-3.04,1.95-5.53,2-13.86-.04-8.46-.07-16.92-.11-25.37ZM707.49,591.03c-3.09,5.56-7.76,6.26-17.27,2.8-16-5.79-32.13-11.11-48.37-15.96-.02,0-.04-.01-.07-.02-.02,0-.04-.01-.07-.02-.5-.13-1.01-.26-1.52-.39-.08-12.42-.15-24.84-.23-37.26,4.1,2.88,8.19,5.79,12.27,8.73.2.15.41.29.61.44.22.07.44.14.65.21,5.21,1.64,10.41,3.32,15.59,5.06.27.09.49.16.67.2,1.05.29,2.11.57,3.16.86-.01-1.08-.02-2.17-.03-3.25-.04-3.86-.08-7.71-.11-11.57,0-.19,0-.39,0-.58-.06-.2-.13-.41-.19-.61-.42-1.36-1.33-2.58-2.66-4.11-2.72-3.13-7.39-8.25-11.91-13.16-.18-.2-.36-.39-.54-.58-7.5-8.13-12.16-13.09-13.33-14.61-.01-.02-.03-.04-.04-.05-.01-.02-.03-.03-.04-.05-3.26-4.05-4.42-8.02-4.39-15.2-.04-8.44-.07-16.89-.11-25.33.05-8.21.3-10.11,1.7-12.68,3.16-5.79,7.92-6.9,17.53-3.83,16.69,5.36,33.25,11.21,49.68,17.56.01.61.02,1.22.03,1.83.02.88.03,1.76.05,2.64.07,10.93.14,21.86.21,32.79-4.04-3.24-8.09-6.45-12.15-9.63-.2-.16-.4-.31-.6-.47-.22-.08-.43-.16-.65-.24-5.11-1.88-10.23-3.72-15.37-5.51-.39-.13-.71-.23-1-.3-.84-.2-1.69-.4-2.54-.6-.13.81-.27,1.63-.4,2.44-.08.47-.11,1.06-.11,1.77,0,.44,0,.88,0,1.32,0,1.98,0,4.43.14,6.99,0,.17.02.33.02.5.17,3.05.65,4.15,3.03,6.91,2.75,3.19,7.45,8.48,12,13.65.13.15.27.3.4.46,7.39,8.4,11.95,13.71,13.09,15.32.01.02.03.04.04.06.02.02.03.04.05.06,3.21,4.29,4.33,8.36,4.31,15.54.04,8.45.07,16.89.11,25.34-.05,8.21-.3,10.09-1.68,12.54Z"/>
    <path class="st2" d="M160.89,549.56c-.08-8.79-.15-17.58-.23-26.37-.05-12.41-4.04-18.97-13.67-21.03,8.46-6.71,11.67-13.33,11.5-23.14-.07-8.73-.14-17.46-.21-26.2,0-2.44.14-4.36.55-6.38-4.26-4.14-8.51-8.25-12.76-12.33-10.69,2.86-21.33,5.91-31.94,9.16.11,14.12.21,28.24.32,42.36,0,.2,0,.4-.01.6,0,.76-.01,1.42-.1,1.9-.76,3.76-2.19,5.95-5.07,7.48-.12-16.91-.23-33.82-.35-50.72-5.63,1.76-11.25,3.58-16.86,5.46,0,0,0,0,0,0-14,4.68-27.91,9.72-41.73,15.1,5.16,4.5,10.33,9.06,15.52,13.66.25,40.05.5,80.09.75,120.14,14.3-5.26,28.7-10.15,43.18-14.67-.07-16.26-.14-32.52-.21-48.78.67-.22,1.34-.45,2.02-.67.58-.12,1.15-.24,1.73-.36,1.09-.26,1.93-.27,2.25-.03.13.1.81.77.81,3.72.21,14.63.41,29.27.62,43.9,16.37-4.96,32.83-9.44,49.38-13.46-1.01-1.69-2.02-3.39-3.03-5.08-1.83-3.06-2.41-5.42-2.49-14.25ZM120.38,577.9c-.19-13.49-.38-26.99-.57-40.48,0-2.96-.59-4.91-1.75-5.8-.95-.73-2.4-.85-4.44-.38-.56.12-1.13.24-1.69.35-.07.01-.13.03-.2.04-.07.02-.13.04-.2.07-.67.22-1.35.45-2.02.67-1.11.37-2.21.74-3.32,1.11,0,1.12,0,2.24.01,3.36.07,15.12.13,30.23.2,45.35-12.21,3.86-24.36,7.99-36.44,12.38-.24-38.9-.49-77.8-.73-116.7,0-.41,0-.81,0-1.22-.25-.22-.5-.45-.76-.67-3.7-3.29-7.39-6.55-11.08-9.79,9.33-3.54,18.69-6.93,28.1-10.16,0,0,0,0,0,0,2.21-.76,4.41-1.5,6.62-2.24,4.48-1.5,8.97-2.96,13.46-4.39.11,15.76.22,31.52.32,47.29,0,1.42.02,2.84.03,4.26,1.37-.73,2.74-1.46,4.1-2.19,5.48-2.91,7-7.59,7.66-10.87,0-.02,0-.04.01-.06,0-.02,0-.04,0-.06.13-.78.14-1.55.15-2.45v-.03c0-.2,0-.4.01-.6v-.09c-.1-12.97-.19-25.95-.29-38.92,8.94-2.7,17.91-5.26,26.9-7.69,3.56,3.42,7.13,6.85,10.7,10.31-.23,1.64-.33,3.34-.33,5.4.07,8.74.14,17.49.21,26.23.15,8.61-2.48,13.88-9.68,19.61-2.01,1.6-4.03,3.21-6.04,4.83,2.06.42,4.12.85,6.19,1.29,8.25,1.75,11.65,7.13,11.69,18.4.08,8.79.15,17.58.23,26.37.08,8.9.65,11.98,2.88,15.71.14.23.28.46.42.69-13.52,3.37-26.98,7.06-40.37,11.06Z"/>
    <path class="st2" d="M431.6,460.05c-16.96-.94-33.94-1.4-50.92-1.39-.03-3.08-.06-6.16-.08-9.24.11-8.23,1.39-8.24,4.48-8.22,8.89.04,17.79.2,26.68.5,1.13.09,2.26.18,3.39.27,5.47,1.95,10.94,3.95,16.41,6.01-.09-8.55-.19-17.1-.28-25.65-.02.02-.04.03-.07.05-4.94-6.2-9.89-12.36-14.84-18.49-18.27-.7-36.56-.86-54.84-.46-19.2.47-26.31,7.83-26.23,26.18.18,28.14.36,56.28.54,84.43.07,12.36,2.29,19.88,7.21,24.42,4.98,4.6,11.54,5.05,16.18,4.97.12,0,.24,0,.36,0,17.42-.42,34.85-.33,52.26.25,9.3.29,20.31-4.49,19.95-30.17-.07-17.82-.14-35.63-.2-53.45ZM421.96,536.8c-2.55,2.42-5.96,3.57-10.13,3.43-17.41-.58-34.84-.67-52.26-.25-.11,0-.23,0-.34,0-3.92.07-9.6-.25-13.72-4.07-4.2-3.89-6.09-10.67-6.15-22.04-.18-28.14-.36-56.28-.54-84.42-.07-16.46,5.46-22.16,22.75-22.58,17.72-.39,35.45-.25,53.17.39,4.35,5.38,8.71,10.79,13.06,16.23.07,6.51.14,13.02.21,19.53-3.93-1.46-7.86-2.89-11.79-4.3-.15-.05-.3-.11-.46-.16-.16-.01-.32-.03-.48-.04-1.13-.09-2.26-.18-3.39-.27-.03,0-.05,0-.08,0-.03,0-.05,0-.08,0-8.89-.3-17.78-.46-26.68-.5-6.64-.02-7.86,3.75-7.96,11.61,0,.01,0,.03,0,.04v.04c.03,3.08.06,6.16.08,9.24.01,1.15.02,2.29.03,3.44h0c.12,12.94.23,25.88.35,38.81-.01,1.15.05,2.13.18,2.91.15.85.29,1.71.44,2.56.88.1,1.75.21,2.63.31.47.06,1,.09,1.57.09h.13c1.46,0,2.91,0,4.37.02,1.17,0,2.34.02,3.51.03,0-1.15-.01-2.29-.02-3.44-.05-9.53-.11-19.06-.16-28.59,0-.21,0-.43,0-.64-.08-.2-.16-.4-.24-.6-1.53-3.82-3.05-7.63-4.58-11.44,14.25.06,28.5.46,42.74,1.19.06,16.68.13,33.35.19,50.03.16,11.44-1.98,19.32-6.34,23.46ZM380.69,459.83c2,4.98,3.99,9.96,5.99,14.95.05,9.53.11,19.06.16,28.59-1.46,0-2.91-.01-4.37-.01-.04,0-.07,0-.11,0-.52,0-.9-.03-1.17-.07-.07-.42-.15-1.15-.13-2.34-.12-13.71-.25-27.42-.37-41.12Z"/>
    <path class="st2" d="M304.8,406.44h0c-13.72,1.15-27.42,2.62-41.09,4.4,5.44,5.85,10.88,11.75,16.33,17.69.26,40.07.52,80.13.79,120.2,14.98-1.66,30-2.96,45.03-3.87-.3-46.63-.61-93.26-.91-139.89-6.71.42-13.42.91-20.13,1.47ZM284.3,544.91c-.25-38.92-.51-77.84-.76-116.76,0-.41,0-.81,0-1.22-.26-.29-.53-.58-.79-.86-3.89-4.26-7.78-8.5-11.67-12.71,9.73-1.19,19.48-2.22,29.24-3.09,0,0,0,0,0,0,1.51-.13,3.01-.27,4.52-.39,5.54-.47,11.08-.88,16.62-1.25.29,44.33.58,88.67.87,133-12.69.83-25.37,1.92-38.02,3.27Z"/>
    <path class="st2" d="M627.55,437.2c-26.26-7.4-52.78-13.59-79.48-18.58.14,14.11.27,28.22.41,42.33,5.78-.18,11.54-.3,17.3-.37,0,.05,0,.11,0,.16.02,11.25.83,155.4.84,165.45.02,1.04-.03,47.44,22.25,79.62,21.87-25.37,21.85-62.02,21.87-63.15-.01-2.61-.05-11.5-.09-23.96.06-.18.1-.32.1-.4-.22-49.16-.43-98.31-.65-147.47,5.97,2.73,11.92,5.51,17.86,8.36-.13-14-.27-28-.4-42.01Z"/>
  </g>
  <g>
    <path class="st3" d="M428.11,463.31c-14.24-.73-28.48-1.13-42.74-1.19,1.52,3.81,3.05,7.63,4.58,11.44.08.2.16.4.24.6,0,.21,0,.43,0,.64.05,9.53.11,19.06.16,28.59,0,1.15.01,2.29.02,3.44-1.17-.01-2.34-.02-3.51-.03-1.46,0-2.92-.01-4.37-.02h-.13c-.57,0-1.09-.04-1.57-.09-.88-.1-1.75-.21-2.63-.31-.15-.85-.29-1.71-.44-2.56-.13-.78-.2-1.76-.18-2.91-.12-12.94-.23-25.88-.35-38.81h0c-.01-1.15-.02-2.29-.03-3.44-.03-3.08-.06-6.16-.08-9.24v-.04s0-.02,0-.04c.1-7.86,1.32-11.63,7.96-11.61,8.89.04,17.79.2,26.68.5.03,0,.05,0,.08,0,.03,0,.05,0,.08,0,1.13.09,2.26.18,3.39.27.16.01.32.03.48.04.15.05.3.11.46.16,3.93,1.41,7.86,2.84,11.79,4.3-.07-6.51-.14-13.02-.21-19.53-4.35-5.44-8.7-10.85-13.06-16.23-17.71-.65-35.44-.78-53.17-.39-17.29.42-22.81,6.11-22.75,22.58.18,28.14.36,56.28.54,84.42.06,11.37,1.96,18.16,6.15,22.04,4.13,3.82,9.81,4.14,13.72,4.07.11,0,.22,0,.34,0,17.42-.42,34.85-.33,52.26.25,4.17.14,7.58-1,10.13-3.43,4.36-4.14,6.49-12.02,6.34-23.46-.06-16.68-.13-33.35-.19-50.03Z"/>
    <path class="st3" d="M709.06,553.15c.02-7.19-1.1-11.26-4.31-15.54-.02-.02-.03-.04-.05-.06-.01-.02-.03-.04-.04-.06-1.14-1.6-5.7-6.92-13.09-15.32-.13-.15-.27-.3-.4-.46-4.54-5.16-9.25-10.45-12-13.65-2.38-2.77-2.86-3.86-3.03-6.91,0-.17-.02-.33-.02-.5-.15-2.56-.15-5.01-.14-6.99,0-.44,0-.88,0-1.32,0-.72.03-1.3.11-1.77.13-.81.27-1.63.4-2.44.84.2,1.69.4,2.54.6.29.07.61.17,1,.3,5.13,1.79,10.26,3.63,15.37,5.51.21.08.43.16.65.24.2.16.4.31.6.47,4.06,3.18,8.11,6.39,12.15,9.63-.07-10.93-.14-21.86-.21-32.79-.02-.88-.03-1.76-.05-2.64-.01-.61-.02-1.22-.03-1.83-16.42-6.35-32.99-12.2-49.68-17.56-9.6-3.07-14.37-1.97-17.53,3.83-1.4,2.57-1.66,4.46-1.7,12.68.04,8.44.08,16.89.11,25.33-.02,7.19,1.13,11.15,4.39,15.2.01.02.03.04.04.05.01.02.03.04.04.05,1.16,1.53,5.82,6.49,13.33,14.61.18.19.36.39.54.58,4.52,4.91,9.19,10.03,11.91,13.16,1.33,1.53,2.24,2.75,2.66,4.11.06.2.13.41.19.61,0,.19,0,.39,0,.58.04,3.86.08,7.71.11,11.57,0,1.08.02,2.17.03,3.25-1.05-.29-2.11-.58-3.16-.86-.17-.05-.4-.12-.67-.2-5.19-1.73-10.38-3.42-15.59-5.06-.22-.07-.44-.14-.65-.21-.2-.15-.41-.29-.61-.44-4.08-2.94-8.18-5.85-12.27-8.73.08,12.42.15,24.84.23,37.26.51.13,1.01.26,1.52.39.02,0,.04.01.07.02.02,0,.04.01.07.02,16.24,4.86,32.37,10.18,48.37,15.96,9.51,3.45,14.17,2.76,17.27-2.8,1.38-2.45,1.63-4.33,1.68-12.54-.04-8.45-.07-16.89-.11-25.34Z"/>
    <path class="st3" d="M551.57,422.73c.11,11.53.22,23.07.33,34.6,4.38-.12,8.75-.21,13.11-.26,1.39-.02,2.79-.03,4.18-.04.01,1.43.02,2.86.03,4.28.26,33.41.53,66.82.79,100.22,0,2.97,0,5.93,0,8.9-.06.05-.12.1-.18.15.15,28,.27,51.73.27,55.6v.11c.04,4.59.94,44.1,19.04,73.56,16.74-22.31,17.99-51.26,18.07-57.1v-.1c-.01-3.18-.04-11.45-.09-22.75.14-1.38.17-2.28.18-2.53-.22-49.14-.43-98.28-.65-147.43,0-1.39-.01-2.79-.02-4.18,1.36.62,2.72,1.23,4.08,1.86,4.6,2.11,9.19,4.25,13.78,6.43-.11-11.45-.22-22.9-.33-34.36-24.01-6.67-48.24-12.32-72.61-16.97Z"/>
    <path class="st3" d="M497.21,414.06c.11,15.4.21,30.81.32,46.21,0,1.15.02,2.3.02,3.45-1.16-.15-2.33-.3-3.49-.44-1.93-.24-3.86-.47-5.79-.7-1.16-.14-2.33-.27-3.49-.41l-.02-3.45c-.11-15.4-.22-30.81-.33-46.21-4.82-.55-9.64-1.06-14.47-1.53-2.12-.21-4.24-.41-6.36-.6,0,0,0,0,0,0-9.93-.9-19.87-1.64-29.81-2.21,4,5.03,7.99,10.08,11.98,15.16.26.34.53.67.79,1.01,0,.41,0,.82,0,1.22.25,38.85.51,77.71.76,116.56,12.74.92,25.46,2.12,38.15,3.58-.11-15.83-.23-31.65-.34-47.48,0-1.15-.02-2.3-.02-3.45,1.16.13,2.33.27,3.49.41,1.09.13,2.18.26,3.27.39.05,0,.1.01.15.02.05.01.1.02.15.03,1.79.37,3.12,1.06,3.97,2.04,1.07,1.25,1.62,3.22,1.62,5.85.1,14.57.21,29.15.31,43.72,12.62,1.63,25.21,3.53,37.76,5.7-.29-44.4-.57-88.81-.86-133.21-12.56-2.15-25.15-4.04-37.76-5.66Z"/>
    <path class="st3" d="M304.83,409.88c-1.51.13-3.01.26-4.52.39,0,0,0,0,0,0-9.76.87-19.5,1.9-29.24,3.09,3.89,4.21,7.78,8.45,11.67,12.71.26.29.53.58.79.86,0,.41,0,.81,0,1.22.25,38.92.51,77.84.76,116.76,12.66-1.36,25.33-2.45,38.02-3.27-.29-44.33-.58-88.67-.87-133-5.54.37-11.08.78-16.62,1.25Z"/>
    <path class="st3" d="M157.45,550.43c-.08-8.79-.15-17.58-.23-26.37-.04-11.27-3.44-16.65-11.69-18.4-2.06-.44-4.13-.86-6.19-1.29,2.01-1.62,4.02-3.23,6.04-4.83,7.2-5.72,9.83-11,9.68-19.61-.07-8.74-.14-17.49-.21-26.23,0-2.06.09-3.76.33-5.4-3.57-3.46-7.14-6.9-10.7-10.31-9,2.42-17.96,4.98-26.9,7.69.1,12.97.19,25.95.29,38.92v.09c0,.2,0,.4-.01.6v.03c-.01.9-.02,1.68-.15,2.45,0,.02,0,.04,0,.06,0,.02,0,.04-.01.06-.66,3.29-2.18,7.97-7.66,10.87-1.37.73-2.74,1.46-4.1,2.19-.01-1.42-.02-2.84-.03-4.26-.11-15.76-.21-31.52-.32-47.29-4.5,1.43-8.98,2.89-13.46,4.39-2.21.74-4.42,1.49-6.62,2.24,0,0,0,0,0,0-9.41,3.23-18.77,6.61-28.1,10.16,3.69,3.24,7.38,6.51,11.08,9.79.25.22.5.45.76.67,0,.41,0,.81,0,1.22.25,38.9.49,77.8.73,116.7,12.08-4.39,24.23-8.51,36.44-12.38-.07-15.12-.13-30.23-.2-45.35,0-1.12,0-2.24-.01-3.36,1.1-.37,2.21-.74,3.32-1.11.67-.22,1.34-.45,2.02-.67.07-.02.13-.04.2-.07.07-.01.13-.03.2-.04.56-.12,1.13-.24,1.69-.35,2.04-.47,3.49-.35,4.44.38,1.16.88,1.75,2.83,1.75,5.8.19,13.49.38,26.99.57,40.48,13.39-4,26.85-7.69,40.37-11.06-.14-.23-.28-.46-.42-.69-2.23-3.73-2.8-6.81-2.88-15.71Z"/>
    <path class="st3" d="M257.25,419.42c-2.93-2.43-6.95-3.26-12.28-2.49-.07,0-.15.02-.22.03-4.92.75-9.84,1.53-14.75,2.36-4.72.8-8.51,2.74-11.62,5.9-1.93,1.97-3.87,3.95-5.8,5.93.03-2.52.05-5.05.08-7.57,0-.39,0-.78.01-1.17-4.63.87-9.26,1.78-13.88,2.73-1.61.33-3.22.66-4.83,1,0,0,0,0,0,0-10.3,2.16-20.57,4.51-30.8,7.03,3.66,3.58,7.32,7.18,10.99,10.81.21.21.42.42.63.62.04.32.08.64.13.95.33,2.45.48,5.12.51,8.66.22,36.31.44,72.62.66,108.94,12.47-2.88,24.98-5.5,37.53-7.85-.18-29.02-.37-58.04-.55-87.05,0-1.15-.01-2.29-.02-3.44,1.16-.22,2.31-.43,3.47-.65,1.05-.19,2.09-.38,3.14-.57.05,0,.1-.02.15-.03.05,0,.1,0,.16-.01,1.74-.16,3.04.12,3.85.82,1.06.93,1.58,2.7,1.59,5.27.19,27.81.37,55.63.56,83.44,12.57-2.18,25.18-4.09,37.81-5.73-.22-36.37-.44-72.73-.66-109.1-.1-9.6-1.96-15.59-5.85-18.82Z"/>
  </g>
  <path class="st5" d="M243.29,461.26c0-12.42-11.21-30.15-32.16-19.51l10.7-19.35s-1.61,1.03-3.45,2.83c-1.84,1.8-5.8,5.93-5.8,5.93l-19.32,24.8,19.96,9.02c1.09-.21,2.19-.41,3.28-.61,1.05-.19,2.09-.38,3.14-.57.05,0,.1-.02.15-.03.05,0,.1,0,.16-.01,1.74-.16,3.04.12,3.85.82,1.06.93,1.58,2.7,1.59,5.27.15,22.54.3,45.07.45,67.61.04,5.28.07,10.55.11,15.83,1.31-.23,2.62-.44,3.92-.66,13.25-2.17,33.89-5.07,33.89-5.07l-20.46-12.66v-73.63Z"/>
  <path class="st5" d="M163.16,433.38s7.32,7.18,10.99,10.81c.21.21.42.42.63.62.04.32.08.64.13.95.33,2.45.48,5.12.51,8.66.19,30.77.37,61.53.56,92.3.03,5.54.07,11.09.1,16.63,1.29-.3,2.59-.58,3.88-.88,13.14-2.91,33.65-6.98,33.65-6.98-.13-20.51-.26-41.02-.39-61.53v61.3l-19.96-12.1v-102.36l-30.1-7.44Z"/>
  <path class="st5" d="M301.65,424.78l-30.58-11.22s7.78,8.45,11.67,12.71c.26.29.53.58.79.86,0,.41,0,.81,0,1.22.22,33.93.44,67.86.67,101.8.03,4.99.06,9.98.1,14.97,2.91-.31,5.82-.61,8.74-.89,2.78-.27,5.56-.52,8.34-.77,6.98-.62,13.96-1.16,20.94-1.61-16.35-10.46-20.57-13.12-20.67-13.19v-103.87Z"/>
  <path class="st5" d="M433.8,408.16s7.99,10.08,11.98,15.16c.26.33.53.67.79,1.01,0,.41,0,.81,0,1.22.25,38.85.51,77.71.76,116.56,6.69.49,13.37,1.05,20.05,1.68,6.04.57,12.07,1.2,18.1,1.9-11.76-13.1-18.07-20.02-18.07-20.02h0v-99.88l-33.62-17.63Z"/>
  <path class="st5" d="M497.21,414.07s.21,30.81.32,46.21c0,1.15.02,3.45.02,3.45l18.79,19.1v-51.42l-19.14-17.34Z"/>
  <path class="st5" d="M516.35,514.45v-31.63l-48.94-5.74s2.65,2.72,17.71,17.68c1.16.13,2.33.27,3.49.41,1.09.13,2.18.26,3.27.39.05,0,.1.01.15.02.05.01.1.02.15.03,1.79.37,3.12,1.06,3.97,2.04,1.07,1.25,1.62,3.22,1.62,5.85.03,3.65.05,7.29.08,10.94.08,10.93.16,21.86.23,32.78,6.1.79,12.19,1.64,18.27,2.56,6.5.98,13,2.02,19.48,3.14-15.7-17.73-19.42-22-19.48-22.07v-16.41Z"/>
  <path class="st5" d="M608.2,449.73c-5.77-1.53-12.46-3.22-18.93-4.7-6.11-1.4-12.74-2.81-18.71-4.05,0,0-18.4-18.09-18.99-18.24h0c.05,4.82.09,9.63.14,14.45.07,6.72.13,13.43.2,20.15,4.38-.12,8.75-.21,13.11-.26,1.39-.02,2.79-.03,4.18-.04h0c0,.18.42,69.16.5,85.67.2,38.53.42,78.38.42,83.49v.11c.04,4.59.94,44.1,19.04,73.56l-.2-238.21h-.01v-16.62s1.04,1.57,17.7,20.75c1.36.62,2.72,1.23,4.08,1.86,4.6,2.11,9.19,4.25,13.78,6.43l-16.31-24.33Z"/>
  <path class="st5" d="M679.02,488.73c.29.07.61.17,1,.3,5.13,1.79,10.26,3.63,15.37,5.51.21.08.43.16.65.24.2.16.4.31.6.47,4.06,3.18,8.11,6.39,12.15,9.63l-10.87-25.2-27.17-11.14s-6.92-3.78-9.12,2.67l14.86,16.93c.84.2,1.69.4,2.54.6Z"/>
  <path class="st5" d="M688.34,574.28l-3.29-3.98s-.01,0-.02,0c3.63-1.96,3.92-6.58,3.92-6.58v-14.34c0-8.81-2.66-14.83-2.66-14.83,0,0-8.47-11.48-14.25-18.68-5.79-7.21-11.07-11.85-11.07-17.19v-22.65c0-2.04.25-3.63.67-4.85h0s-17.96-20.47-17.96-20.47c-.89.83-1.68,1.87-2.38,3.15-1.4,2.57-1.66,4.46-1.7,12.68.04,8.44.08,16.89.11,25.33-.02,7.19,1.13,11.15,4.39,15.2.01.02.03.04.04.05.01.02.03.04.04.05,1.16,1.53,5.82,6.49,13.33,14.61.18.19.36.39.54.58,4.52,4.91,9.19,10.03,11.91,13.16,1.33,1.53,2.24,2.75,2.66,4.11.06.2.13.41.19.61,0,.19,0,.39,0,.58.04,3.86.08,7.71.11,11.57,0,1.09.02,2.17.03,3.26l12.08,14.64c-1.67.9-4.05,1.23-7.43.29h0s0,.02,0,.02c-8.32-2.74-16.81-5.34-25.44-7.89l-12.17-22.55c.08,12.42.15,24.84.23,37.26.51.13,1.01.26,1.52.39.02,0,.04.01.07.02.02,0,.04.01.07.02,16.24,4.86,32.37,10.18,48.37,15.96.53.19,1.05.37,1.55.54.15.05.3.1.45.15.36.12.71.22,1.05.33.15.04.31.09.46.13.4.12.8.22,1.18.31.06.02.12.03.18.05.43.1.84.19,1.24.26.14.03.28.05.42.07.27.05.53.09.79.12.15.02.29.04.44.05.27.03.54.05.8.06.1,0,.21.02.31.02.33.01.65,0,.96,0,.14,0,.27-.02.4-.03.19-.02.38-.03.56-.06.14-.02.28-.04.41-.06.18-.03.36-.08.54-.12.13-.03.25-.06.38-.09.24-.07.48-.16.71-.25.12-.05.24-.11.37-.17.14-.06.27-.13.4-.2.12-.07.24-.14.36-.21.13-.08.25-.17.38-.26.11-.08.22-.15.32-.23l-.05-.03-16.5-19.93Z"/>
  <path class="st5" d="M87.05,471.95v99.57c.05-.02.11-.04.16-.06-.1.61-.16.97-.16.97l19.35,9.97c-6.47,2.05-12.92,4.17-19.35,6.37-2.85.97-5.69,1.96-8.54,2.96-2.85,1.01-5.71,2.02-8.55,3.06-.04-5.66-.07-11.33-.11-16.99-.21-33.24-.42-66.48-.62-99.71,0-.41,0-.81,0-1.22-.25-.22-.5-.45-.76-.67-3.7-3.29-7.39-6.56-11.08-9.8l29.67,5.56Z"/>
  <path class="st5" d="M87.05,518.04l19.14,15.45s2.21-.75,3.32-1.11c.67-.22,1.34-.45,2.02-.67.07-.02.13-.04.2-.07.07-.01.13-.03.2-.04.56-.12,1.13-.24,1.69-.35,2.04-.47,3.49-.35,4.44.38,1.16.88,1.75,2.84,1.75,5.8.11,7.76.22,15.51.33,23.27h0c.08,5.74.16,11.47.24,17.21,1.29-.38,2.58-.76,3.87-1.13,14.11-4.07,36.49-9.92,36.49-9.92l-24.79-10.62h0v-25.64c0-18.25-10.22-23.3-20.21-20.52-20.32,5.66-28.7,7.97-28.7,7.97Z"/>
  <path class="st5" d="M135.96,455.96l-18.39-10.28c0,.32,0,.64,0,.97,0,.28,0,.61,0,1,0,.63,0,1.26.01,1.89,0,.26,0,.53,0,.81.03,4.19.06,8.38.09,12.56,0,.37,0,.75,0,1.12.02,2.73.04,5.47.06,8.2,0,.52,0,1.05.01,1.56,0,.72.01,1.44.02,2.16,0,.11,0,.22,0,.34.01,1.78.03,3.57.04,5.35,0,.23,0,.45,0,.67,0,.76.01,1.51.02,2.27h0v.04h0v.04c0,.2,0,.4-.01.6v.02h0c-.01.9-.02,1.68-.15,2.45,0,.02,0,.04,0,.06,0,.02,0,.04-.01.06-.66,3.29-2.18,7.97-7.66,10.87-1.37.73-2.74,1.46-4.1,2.19l14.22,7.33s15.79-8.76,15.79-28.5c0,0-.01,0-.02,0,.02-.39.05-.78.05-1.19v-22.62Z"/>
  <path class="st5" d="M404.27,519.7v-.07c2.5-2.05,5.06-5.79,5.33-11.29h.03v-45.78c-1.79-.06-3.57-.1-5.36-.14h0c-.52-.02-1.04-.03-1.56-.04-1.18-.03-2.36-.05-3.54-.07-4.57-.09-9.14-.16-13.72-.18,1.52,3.81,3.05,7.63,4.58,11.44.08.2.16.4.24.6,0,.21,0,.43,0,.64.05,9.53.11,19.06.16,28.59,0,1.12.01,2.25.02,3.37l-.09.07,1.42,1.33c6.24,6.18,10.19,9.62,11.73,10.92l.66.61s.03-.02.04-.03c.02.02.04.03.04.03Z"/>
  <path class="st1" d="M471.09,157.23c-3.23-3.49-6.67-6.76-10.3-9.84,0,0,.01.01.02.02,17.83-4.4,22.59-19.67,22.59-19.67,35.44-14.07,36.54-35.88,36.54-47.7,0,0-21.2,17.12-38.99,12.09-15.42-4.36-14.91-23.07-25.95-41.85-11.71-19.92-30.03-33.15-60.63-20.36-11.54-10.33-25.2-16.59-40.33-16.59-121.08,0-121.74,170.19-246.01,156.8,1.8,6.64,26.18,38.98,70.5,35.79-11.57,15.01-66,28.13-75.78,29.54,7.27,8.16,27.93,18.08,45.59,18.66-73.51,57.43-22,131.49-14.81,136.24,0,0-10.6-51.36,39.13-78.73,10.86-5.98,24.49-5.42,38.52-5.63,2.53-.04,5.08-.08,7.65-.14-1.91,11.16-1.4,22.54,1.53,33.97l9.4,36.77s3.26-32.1,32.61-58.02c3.03,15.36,7.96,28.36,14.94,39.39,8.8,13.9,20.83,24.97,37.87,34.83,25.31,14.65,43.62,22.99,54.53,27.41,4.81,1.95,7.4,3.89,7.4,3.89l5.8,4.56,5.81-4.53s2.61-1.97,7.44-3.92c10.9-4.42,29.2-12.75,54.52-27.41,17.04-9.86,29.08-20.93,37.88-34.83,9.62-15.2,15.37-34.14,17.58-57.89,1.69-18.1,3.05-34.19,4.06-47.81.99-13.37,3.16-22.1,3.25-22.44l4.22-16.25-16.38,4.93c-3.92-22.75-14.54-44.35-30.21-61.29Z"/>
  <polygon class="st5" points="606.65 465.77 606.65 465.77 606.65 465.77 606.65 465.77"/>
  <path class="st5" d="M411.73,438.26s.05,0,.08,0c.03,0,.05,0,.08,0,1.13.09,2.26.18,3.39.27.16.01.32.03.48.04.15.05.3.11.46.16,3.93,1.41,11.79,4.3,11.79,4.3l-16.62-21.21,2.14-9.3c-7.03,3.34-12.83,5.86-17.34,7.69-4.83,1.96-7.42,3.9-7.44,3.92l-5.81,4.53-5.8-4.56s-2.58-1.94-7.4-3.89c-5.64-2.29-13.28-5.63-22.82-10.35l-1.2.63-1.65,1.4-.06-.04s-.03.03-.04.04c-.2.19-.39.38-.58.58-.03.04-.07.07-.1.11-.18.2-.35.4-.52.61-.03.04-.07.09-.1.13-.16.21-.32.42-.47.64-.03.05-.07.1-.1.15-.14.22-.28.44-.42.67-.03.06-.07.12-.1.18-.13.23-.25.46-.37.7-.03.07-.07.13-.1.2-.11.24-.22.48-.33.72-.03.08-.06.15-.1.22-.1.25-.19.5-.29.75-.03.08-.06.17-.09.25-.09.25-.17.52-.25.78-.03.09-.06.18-.08.28-.07.26-.14.54-.21.81-.02.1-.05.2-.08.3-.06.27-.12.56-.17.84-.02.11-.05.22-.07.33-.05.28-.1.58-.14.87-.02.12-.04.24-.06.36-.04.29-.08.6-.11.9-.02.13-.03.26-.05.39-.03.3-.06.62-.08.94-.01.14-.03.27-.04.42-.02.32-.04.65-.06.98,0,.14-.02.29-.02.43-.02.35-.02.71-.03,1.07,0,.14-.01.27-.01.4,0,.5-.01,1.01-.01,1.53.18,28.14.36,56.28.54,84.42v.02c0,.76.02,1.5.04,2.22,0,.23.02.44.03.67.02.49.04.99.06,1.46.01.24.03.48.05.71.03.44.06.88.1,1.31.02.23.04.45.06.67.04.43.09.85.14,1.27.02.19.05.39.07.58.06.44.12.87.19,1.29.02.15.05.3.07.44.09.5.18.99.29,1.46.01.05.02.11.03.16.24,1.09.53,2.1.85,3.05.04.1.08.2.11.31.12.34.25.67.38.99.06.14.12.28.18.42.12.26.24.53.37.78.07.14.15.29.22.43.12.24.26.46.39.69.08.14.17.28.25.41.14.21.28.42.42.62.09.13.18.26.28.39.15.19.3.37.45.55.1.12.19.24.3.35.21.23.43.45.65.66.05.05.1.1.15.15.25.23.51.45.77.66.06.04.11.08.17.13.2.16.41.31.62.45.08.05.16.11.25.16.19.12.38.24.57.35.09.05.18.1.28.15.19.1.38.2.57.3.09.04.18.09.27.13.19.09.38.17.57.25.09.04.19.08.28.12.2.08.41.15.61.23.09.03.17.06.26.09.23.08.45.14.68.21.06.02.12.04.18.05.27.08.54.14.81.21.02,0,.04,0,.06.01.25.06.5.11.75.15.15.03.3.05.45.08.19.03.38.06.57.09.05,0,.1.01.15.02.23.03.46.06.69.08.09,0,.18.02.27.03.2.02.39.04.58.05.09,0,.17.01.26.02.19.01.38.02.56.03.09,0,.18,0,.27.01.17,0,.34.01.5.01.11,0,.21,0,.31,0,.11,0,.22,0,.33,0,.29,0,.57,0,.84,0,.08,0,.16,0,.24,0,.11,0,.22,0,.34,0,17.42-.42,34.85-.33,52.26.25,4.17.14,7.58-1,10.13-3.43.1-.09.19-.2.29-.3l-18.06-16.8c-4.06,2.89-8.77,2.39-8.77,2.39h-24.09c-3.14-.23-13.35-1.87-13.35-13.35v-65.72s-.04-1.79-.1-1.88c-.05-3.3.41-10.24,4.71-14.85l16.94,13.17c1.2-1.15,2.95-1.73,5.53-1.72,8.2.03,16.4.18,24.59.44h0c.7.02,1.39.04,2.09.06Z"/>
  <path class="st5" d="M259.61,299.79c-1.69-18.1-3.05-34.19-4.06-47.81-1-13.49-3.23-22.37-3.25-22.46l-4.18-16.21,16.34,4.92c3.92-22.75,14.54-44.35,30.21-61.29,15.87-17.15,36.87-29.5,59.51-35.09l-2.71-10.19,8.88-2.53c.68-.19,1.17-.84,1.17-1.54,0-.41-.16-.8-.45-1.11l-6.49-6.81,28.25-26.94,28.25,26.94-6.5,6.81c-.29.31-.45.69-.45,1.11,0,.7.49,1.35,1.17,1.54l8.88,2.53-2.7,10.19c12.18,3,23.87,7.98,34.56,14.59,14.82,3.03,24.13-7.56,24.13-7.56-5.56-1.27-8.47-6.18-8.47-6.18,26.71,2.79,40.9-23.04,40.9-23.04,0,0-24.42,11.88-39.72-.2-15.3-12.08-10.97-35.82-34.75-54.08-8.71-6.69-17.83-6.49-25.8-4.02,6.8,14.45,1.62,28.05,1.62,28.05-2.65-13.09-9.08-21.3-13.35-25.5-63.71-57.81-147.43,68.99-159.2,82.99-42.76,48.61-65.52,49.71-98.27,53.82,0,0,30.88,24.22,66.87,9.51,0,0-10.32,32.84-71.33,48.06,0,0,24.5,11.37,57.87,4.61,0,0-85.11,46.74-62.68,113.89,0,0,5.16-36.2,42.31-53.48,20.09-9.34,45.1-3.99,67.13-6.61,8.75-1.07,13.44-3.11,13.44-3.11-2.77,6.01-9.57,9.02-15.85,10.51-2.91,10.86-3.37,22.8-.05,35.75,0,0,6.99-21.74,28.92-38.63-.05-.48-.1-.95-.15-1.43Z"/>
  <path class="st3" d="M353.06,41.58c-44.45,0-88.33,56.07-107.96,84.71-22.62,33.02-50.34,55.23-82.4,62.43,8.3.87,15.62.71,21.8.06,12.48-1.43,28.27-5.75,41.65-17.3,0,0-2.91,9.93-19.21,19.17-1.36,11-9.15,32.11-46.28,49.41,30.9,1,44.09-8.6,44.09-8.6-1.83,15.17-66.24,36.48-75.4,93.7,5.5-10.14,13.95-19.43,28.53-26.85,18.18-9.26,28.35-5.26,64.98-8.29,24.9-2.06,34.56-14.75,34.56-14.75,0,0-1.34-16.17-1.87-23.29-1-13.49-3.23-22.37-3.25-22.46l-4.18-16.21,16.34,4.92c3.92-22.75,14.54-44.35,30.21-61.29,15.87-17.15,36.87-29.5,59.51-35.09l-1.47-5.53-12.91-6.9,5.73-1.63-4.35-4.56,17.96-7.92,23.68-22.59,12.29,11.72c1.81-32.85-27.72-42.87-42.05-42.87Z"/>
  <path class="st1" d="M239.53,246.62c-24.12,50.59-37.9,15.29-94.48,50.59,41.88-55.95,62.32-21.78,94.48-50.59ZM208.57,203.68s34.88,0,62.4-16c5.44-11.98,12.75-23.11,21.6-32.68,15.61-16.86,36.49-29.42,58.81-35.36l1.59-.42,1.67-.42-1.61-6.56,8.26-2.27c.68-.19,1.56-1.8,1.56-2.5,0-.42-.6-1.67-.9-1.98l-5.43-5.99,13.87-13.64c-.34-.55-1.24-1.96-1.69-2.63-12.83-19.39-47.13-20.37-67.25,11.18-16.51,25.89-29.02,57.75-76.73,67.42,0,0,22.1,1.12,41.45-3.19-19.33,20.62-25.71,32.98-57.6,45.04Z"/>
  <path class="st3" d="M477.21,116.23c-5.93-.99-11.15-3.24-15.58-6.75-8.69-6.86-12.26-16.2-15.71-25.23-3.95-10.35-7.69-20.13-18.94-28.77-2.65-2.03-5.41-3.22-8.4-3.62,15.08,11.07,3.88,40.66,16.81,46.68-16.85,1.8-13.16-12.13-20.47-19.06-2.67,6.77-6.21,12.1-8.78,15.47l4.94,4.71-6.5,6.81c-.29.31-.45.69-.45,1.11,0,.7.49,1.35,1.17,1.54l8.88,2.53-2.7,10.19c9.75,2.4,19.17,6.09,28.03,10.85,4.46.61,10.26.37,19.26-1.73-8.96-6.6-9.37-15.73-9.37-15.73,0,0,16.38,5.25,27.82.99Z"/>
  <path class="st0" d="M359.19,135.78l23.64,78.46,23.64-78.46c41.71,9.62,74,44.45,80.52,86.72l-22.72,6.84-81.44,9.2-81.48-9.21-22.68-6.83c6.51-42.28,38.81-77.11,80.52-86.73Z"/>
  <path class="st0" d="M268.33,234.82c.68,4.16,1.41,9.62,1.89,16.08,1,13.52,2.36,29.52,4.04,47.54,3.74,40.15,17.7,63.72,48.18,81.36,24.58,14.22,42.22,22.27,52.69,26.51,3.31,1.34,5.87,2.7,7.7,3.78,1.83-1.08,4.4-2.44,7.7-3.78,10.46-4.24,28.1-12.28,52.68-26.51,30.48-17.64,44.44-41.21,48.18-81.36,1.68-18.02,3.04-34.01,4.04-47.54.48-6.46,1.21-11.92,1.89-16.08l-114.5,34.8-114.5-34.8Z"/>
  <path class="st4" d="M389.42,107.58c0-2.38.52-4.7,1.49-6.82l-8.09-7.71v79.42l13.66-51.46c-4.32-2.99-7.06-7.98-7.06-13.42Z"/>
  <path class="st0" d="M374.74,100.76c.98,2.12,1.49,4.44,1.49,6.82,0,5.44-2.74,10.43-7.06,13.42l13.66,51.46v-79.42l-8.09,7.71Z"/>
  <path class="st4" d="M411.24,143.73c33.83,10.29,60.06,38.66,67.66,73.24l-16.07,4.84-77.77,8.79,26.17-86.87ZM382.83,276.98v125.07c1.61-.81,3.3-1.57,5.06-2.29,10.25-4.15,27.56-12.05,51.8-26.08,28.62-16.56,41.15-37.85,44.7-75.92,1.67-17.97,3.03-33.91,4.03-47.4.14-1.89.31-3.77.5-5.63l-106.08,32.24Z"/>
  <path class="st2" d="M460.71,222.05l2.13-.24,16.07-4.84c-6.76-30.75-28.26-56.59-56.74-69.16,16.26,11.52,28.37,23.64,38.54,74.24Z"/>
  <path class="st2" d="M466.51,251.55c.96,7.98,1.46,16.09,1.46,24.33,0,34.36-2.38,76.39-23.73,95.05,25.4-16.18,36.79-37.16,40.14-73.14,1.67-17.97,3.03-33.91,4.03-47.4.14-1.89.31-3.77.5-5.63l-22.4,6.81Z"/>
  <path class="st1" d="M367.37,384.37c-10.16-4.77-18.55-14.24-18.55-24.65l-2.45-78.36-5.89-6.83,19.36,5.88,2.45,81.89c0,7.48,3.2,20.13,5.09,22.08ZM333.96,347.48l-2.45-75.69-19.36-5.87,5.89,6.88,2.45,72.11c0,10.41,8.4,19.88,18.55,24.65-1.89-1.95-5.09-14.61-5.09-22.08ZM305.46,327.38l-2.45-64.24-19.36-5.94,5.9,7.01,2.45,60.6c0,10.41,8.4,19.88,18.55,24.65-1.89-1.95-5.09-14.61-5.09-22.08ZM398.29,384.37c10.16-4.77,18.55-14.24,18.55-24.65l2.45-78.36,5.89-6.83-19.36,5.88-2.45,81.89c0,7.48-3.2,20.13-5.09,22.08ZM426.61,369.56c10.16-4.77,18.55-14.25,18.55-24.65l2.45-72.11,5.89-6.88-19.36,5.87-2.45,75.69c0,7.48-3.2,20.13-5.09,22.08ZM455.11,349.46c10.16-4.77,18.55-14.25,18.55-24.65l2.45-60.6,5.89-7.01-19.36,5.94-2.45,64.24c0,7.48-3.2,20.13-5.09,22.08Z"/>
  <path class="st0" d="M229.76,376.6l-8.22-32.16-3.42,3.14c-.26.24-6.94,6.25-18.28,13.41-11.55,7.29-25.11,16.06-40.3,26.05-19.92,13.11-33.94,27.08-42.84,42.72-.3.53-.59,1.06-.88,1.6,1.43-.43,2.86-.87,4.29-1.3h0c3.97-1.19,7.94-2.34,11.92-3.47,0,0,0,0,0,0,.24-.07.48-.13.72-.2,3.21-.91,6.42-1.8,9.64-2.67.85-.23,1.7-.46,2.55-.69.36-.09.71-.19,1.06-.29,1.8-.48,3.6-.96,5.41-1.43,0,0,0,0,.01.01,1.47-.38,2.95-.78,4.42-1.16,14.22-3.63,28.51-6.92,42.85-9.85,5.34-1.09,10.69-2.13,16.05-3.13h0c.45-.08.91-.17,1.36-.25,3.9-.72,7.8-1.41,11.71-2.08,0,.02,0,.04,0,.05.69-.15,1.38-.29,2.09-.41,3.16-.53,6.33-1.04,9.5-1.54,0,0,0,0-.01-.01.96-.15,1.91-.29,2.87-.43.8-.12,1.59-.25,2.39-.37.11-.02.22-.03.33-.05.14-.02.28-.03.42-.05,1.39-.21,2.78-.41,4.17-.61-8.47-19.96-12.85-36.03-14.67-43.63-4.32,11.02-5.12,18.82-5.12,18.82Z"/>
  <g>
    <path class="st3" d="M424.65,240.44c-1.01,2.88-3.63,5.04-6.87,5.29-2.17.17-4.19-.56-5.73-1.87-1.52.65-3.13,1.5-3.91,2.3,0,0,3.08,3.45,7.92,3.52,10.4.13,9.93-6.21,19.64-11.01,0,0-6.23.73-11.05,1.77Z"/>
    <path class="st3" d="M340.92,240.44c1.01,2.88,3.63,5.04,6.87,5.29,2.17.17,4.19-.56,5.73-1.87,1.52.65,3.13,1.5,3.91,2.3,0,0-3.08,3.45-7.92,3.52-10.4.13-9.93-6.21-19.64-11.01,0,0,6.23.73,11.05,1.77Z"/>
  </g>
  <path class="st4" d="M494.53,346.99c-1.79,3.86-3.77,7.52-5.96,10.98-8.8,13.9-20.83,24.97-37.88,34.83-.86.5-1.69.97-2.54,1.46,7.24.53,14.48,1.14,21.72,1.85,6.75.66,13.5,1.4,20.24,2.21,1.17.14,2.34.28,3.51.43,3.71.46,7.42.95,11.13,1.46,20.9-22.73,24.69-47.65,24.74-47.99-11.31-3.45-23.13-5.19-34.96-5.23ZM485.82,392.82c-2.53,0-4.58-2.05-4.58-4.58,0-2.13,1.46-3.92,3.43-4.43-.84.82-1.38,2-1.38,3.33,0,2.48,1.86,4.48,4.16,4.48.7,0,1.36-.19,1.94-.52-.84,1.05-2.13,1.71-3.57,1.71ZM499.2,379.93c-2.53,0-4.58-2.05-4.58-4.58,0-2.13,1.46-3.92,3.43-4.43-.84.82-1.38,2-1.38,3.33,0,2.48,1.86,4.48,4.16,4.48.7,0,1.36-.19,1.94-.52-.84,1.04-2.13,1.71-3.57,1.71ZM507.35,365.17c-2.53,0-4.58-2.05-4.58-4.58,0-2.13,1.46-3.92,3.43-4.43-.84.82-1.38,2-1.38,3.33,0,2.47,1.86,4.48,4.16,4.48.7,0,1.36-.19,1.94-.52-.84,1.05-2.13,1.72-3.57,1.72Z"/>
</svg>